<svg id="Layer_1" data-name="Layer 1" xmlns="http://www.w3.org/2000/svg" xmlns:xlink="http://www.w3.org/1999/xlink" viewBox="0 0 388.59 336.79"><defs><style>.cls-1{fill:url(#linear-gradient);}.cls-2{fill:url(#linear-gradient-2);}.cls-3{fill:url(#linear-gradient-3);}.cls-4{fill:url(#linear-gradient-4);}.cls-5{fill:url(#linear-gradient-5);}.cls-6{fill:url(#linear-gradient-6);}.cls-7{fill:url(#linear-gradient-7);}.cls-8{fill:url(#linear-gradient-8);}.cls-9{fill:url(#linear-gradient-9);}.cls-10{fill:url(#linear-gradient-10);}.cls-11{fill:url(#linear-gradient-11);}.cls-12{opacity:0.6;isolation:isolate;fill:url(#radial-gradient);}.cls-13{fill:url(#linear-gradient-12);}.cls-14{fill:url(#linear-gradient-13);}.cls-15{fill:url(#linear-gradient-14);}.cls-16{fill:url(#linear-gradient-15);}.cls-17{fill:url(#linear-gradient-16);}.cls-18{fill:url(#linear-gradient-17);}.cls-19{fill:url(#linear-gradient-18);}.cls-20{fill:url(#linear-gradient-19);}.cls-21{fill:url(#linear-gradient-20);}.cls-22{fill:url(#linear-gradient-21);}.cls-23{fill:url(#linear-gradient-22);}.cls-24{fill:url(#linear-gradient-23);}.cls-25{fill:url(#linear-gradient-24);}.cls-26{fill:url(#linear-gradient-25);}.cls-27{fill:url(#linear-gradient-26);}.cls-28{fill:url(#linear-gradient-27);}.cls-29{fill:url(#linear-gradient-28);}.cls-30{fill:url(#linear-gradient-29);}.cls-31{fill:url(#linear-gradient-30);}.cls-32{fill:url(#linear-gradient-31);}.cls-33{fill:url(#linear-gradient-32);}.cls-34{fill:url(#linear-gradient-33);}.cls-35{fill:url(#linear-gradient-34);}</style><linearGradient id="linear-gradient" x1="-400.73" y1="480.51" x2="-399.67" y2="481.22" gradientTransform="matrix(99.88, 0, 0, -81.27, 40048.02, 39361.58)" gradientUnits="userSpaceOnUse"><stop offset="0" stop-color="#b07515"/><stop offset="0.09" stop-color="#e1ba60"/><stop offset="0.14" stop-color="#f5d77f"/><stop offset="0.26" stop-color="#ffffd7"/><stop offset="0.36" stop-color="#f5d77f"/><stop offset="0.49" stop-color="#b07515"/><stop offset="0.57" stop-color="#e1ba60"/><stop offset="0.61" stop-color="#f5d77f"/><stop offset="0.74" stop-color="#ffffd7"/><stop offset="0.84" stop-color="#f5d77f"/><stop offset="1" stop-color="#b07515"/></linearGradient><linearGradient id="linear-gradient-2" x1="-400.09" y1="480.42" x2="-401.15" y2="481.21" gradientTransform="matrix(99.88, 0, 0, -81.27, 40336.7, 39361.58)" xlink:href="#linear-gradient"/><linearGradient id="linear-gradient-3" x1="-400.95" y1="480.72" x2="-399.95" y2="480.72" gradientTransform="matrix(99.88, 0, 0, -81.45, 40048.02, 39446.56)" xlink:href="#linear-gradient"/><linearGradient id="linear-gradient-4" x1="-400.95" y1="480.72" x2="-399.95" y2="480.72" gradientTransform="matrix(99.88, 0, 0, -81.27, 40336.72, 39361.49)" xlink:href="#linear-gradient"/><linearGradient id="linear-gradient-5" x1="-399.52" y1="479.29" x2="-398.52" y2="479.29" gradientTransform="matrix(73.91, 0, 0, -45.2, 29554.97, 21939.28)" gradientUnits="userSpaceOnUse"><stop offset="0" stop-color="#161a1f"/><stop offset="0.14" stop-color="#2a323b"/><stop offset="0.26" stop-color="#343f4a"/><stop offset="0.36" stop-color="#2a323b"/><stop offset="0.49" stop-color="#161a1f"/><stop offset="0.61" stop-color="#2a323b"/><stop offset="0.74" stop-color="#343f4a"/><stop offset="0.84" stop-color="#2a323b"/><stop offset="1" stop-color="#161a1f"/></linearGradient><linearGradient id="linear-gradient-6" x1="-399.52" y1="479.29" x2="-398.52" y2="479.29" gradientTransform="matrix(73.91, 0, 0, -45.2, 29817.6, 21939.28)" xlink:href="#linear-gradient-5"/><linearGradient id="linear-gradient-7" x1="-403.8" y1="482.07" x2="-402.82" y2="482.07" gradientTransform="matrix(338.72, 0, 0, -336.79, 136804.4, 162524.4)" xlink:href="#linear-gradient"/><linearGradient id="linear-gradient-8" x1="-403.64" y1="482.42" x2="-402.94" y2="481.72" gradientTransform="matrix(334.3, 0, 0, -332.49, 135013.89, 160448.49)" xlink:href="#linear-gradient"/><linearGradient id="linear-gradient-9" x1="-403.54" y1="481.99" x2="-402.59" y2="481.99" gradientTransform="matrix(283.33, 0, 0, -283.33, 114397.29, 136730.14)" xlink:href="#linear-gradient"/><linearGradient id="linear-gradient-10" x1="-403.41" y1="482.34" x2="-402.74" y2="481.67" gradientTransform="matrix(277.73, 0, 0, -277.73, 112132.08, 134028.14)" gradientUnits="userSpaceOnUse"><stop offset="0" stop-color="#0f1115"/><stop offset="0.14" stop-color="#1c2228"/><stop offset="0.26" stop-color="#232a32"/><stop offset="0.36" stop-color="#1c2228"/><stop offset="0.49" stop-color="#0f1115"/><stop offset="0.61" stop-color="#1c2228"/><stop offset="0.74" stop-color="#232a32"/><stop offset="0.84" stop-color="#1c2228"/><stop offset="1" stop-color="#0f1115"/></linearGradient><linearGradient id="linear-gradient-11" x1="-403.22" y1="482.28" x2="-402.55" y2="481.61" gradientTransform="matrix(246.41, 0, 0, -246.41, 99464.74, 118918.17)" xlink:href="#linear-gradient-5"/><radialGradient id="radial-gradient" cx="-402.52" cy="481.91" r="0.86" gradientTransform="matrix(242.85, 0, 0, -242.95, 98005.29, 117231.58)" gradientUnits="userSpaceOnUse"><stop offset="0" stop-color="#e8e8e8"/><stop offset="0.05" stop-color="#a6a6a6"/><stop offset="0.14" stop-color="#606060"/><stop offset="0.21" stop-color="#4c4c4c"/><stop offset="0.33" stop-color="#303030"/><stop offset="0.45" stop-color="#1b1b1b"/><stop offset="0.59" stop-color="#0c0c0c"/><stop offset="0.76" stop-color="#030303"/><stop offset="1"/></radialGradient><linearGradient id="linear-gradient-12" x1="-403.8" y1="480.69" x2="-402.8" y2="480.69" gradientTransform="matrix(336.4, 0, 0, -80.06, 135863.07, 38734.81)" xlink:href="#linear-gradient"/><linearGradient id="linear-gradient-13" x1="-403.66" y1="482.09" x2="-402.8" y2="478.49" gradientTransform="matrix(336.4, 0, 0, -80.11, 135863.97, 38758.13)" xlink:href="#linear-gradient"/><linearGradient id="linear-gradient-14" x1="-372.07" y1="475.21" x2="-354.77" y2="462.59" gradientTransform="matrix(11.54, 0, 0, -15.82, 4397.9, 7611.11)" xlink:href="#linear-gradient"/><linearGradient id="linear-gradient-15" x1="-382.67" y1="475.79" x2="-370.66" y2="463.18" gradientTransform="matrix(16.62, 0, 0, -15.84, 6472.72, 7620.73)" xlink:href="#linear-gradient"/><linearGradient id="linear-gradient-16" x1="-371.18" y1="476.66" x2="-352.5" y2="464.53" gradientTransform="matrix(10.68, 0, 0, -16.45, 4087.84, 7915.39)" xlink:href="#linear-gradient"/><linearGradient id="linear-gradient-17" x1="-388.49" y1="477.24" x2="-379.19" y2="465.03" gradientTransform="matrix(21.48, 0, 0, -16.36, 8476, 7872.06)" xlink:href="#linear-gradient"/><linearGradient id="linear-gradient-18" x1="-355" y1="477.72" x2="-325.49" y2="465.01" gradientTransform="matrix(6.76, 0, 0, -15.71, 2544.5, 7556.81)" xlink:href="#linear-gradient"/><linearGradient id="linear-gradient-19" x1="-385.21" y1="478.47" x2="-373.44" y2="466.03" gradientTransform="matrix(16.97, 0, 0, -16.04, 6691.33, 7718.87)" xlink:href="#linear-gradient"/><linearGradient id="linear-gradient-20" x1="-390.15" y1="479.14" x2="-380.99" y2="466.96" gradientTransform="matrix(21.81, 0, 0, -16.41, 8670.83, 7892.35)" xlink:href="#linear-gradient"/><linearGradient id="linear-gradient-21" x1="-390.25" y1="480.53" x2="-382.37" y2="476.58" gradientTransform="matrix(25.34, 0, 0, -50.54, 9962.97, 24408.18)" xlink:href="#linear-gradient"/><linearGradient id="linear-gradient-22" x1="-388.35" y1="480.7" x2="-379.02" y2="476.37" gradientTransform="matrix(21.42, 0, 0, -46.17, 8408.47, 22297.08)" xlink:href="#linear-gradient"/><linearGradient id="linear-gradient-23" x1="-391.31" y1="480.92" x2="-383.25" y2="476.54" gradientTransform="matrix(24.79, 0, 0, -45.62, 9801.83, 22032.31)" xlink:href="#linear-gradient"/><linearGradient id="linear-gradient-24" x1="-385.57" y1="481.24" x2="-373.46" y2="476.87" gradientTransform="matrix(16.49, 0, 0, -45.62, 6474.05, 22032.31)" xlink:href="#linear-gradient"/><linearGradient id="linear-gradient-25" x1="-355.11" y1="481.54" x2="-322.65" y2="477.16" gradientTransform="matrix(6.15, 0, 0, -45.62, 2314.53, 22032.31)" xlink:href="#linear-gradient"/><linearGradient id="linear-gradient-26" x1="-389.82" y1="481.82" x2="-379.88" y2="477.44" gradientTransform="matrix(20.08, 0, 0, -45.62, 7970.42, 22032.31)" xlink:href="#linear-gradient"/><linearGradient id="linear-gradient-27" x1="-392.7" y1="482.12" x2="-384.33" y2="477.75" gradientTransform="matrix(23.87, 0, 0, -45.73, 9530.15, 22084.96)" xlink:href="#linear-gradient"/><linearGradient id="linear-gradient-28" x1="-381.9" y1="474.33" x2="-378.78" y2="471.05" gradientTransform="matrix(17.43, 0, 0, -16.58, 6815.96, 8131.78)" xlink:href="#linear-gradient"/><linearGradient id="linear-gradient-29" x1="-386.44" y1="476.35" x2="-383.87" y2="473.64" gradientTransform="matrix(21.15, 0, 0, -20.1, 8346.12, 9827.85)" xlink:href="#linear-gradient"/><linearGradient id="linear-gradient-30" x1="-383.39" y1="475.92" x2="-380.27" y2="472.64" gradientTransform="matrix(17.41, 0, 0, -16.58, 6861.09, 8131.78)" xlink:href="#linear-gradient"/><linearGradient id="linear-gradient-31" x1="-397.42" y1="415.12" x2="-393.46" y2="276.94" gradientTransform="matrix(50.46, 0, 0, -1.45, 20202.57, 646.25)" xlink:href="#linear-gradient"/><linearGradient id="linear-gradient-32" x1="-397.34" y1="413.5" x2="-393.38" y2="277.35" gradientTransform="matrix(50.46, 0, 0, -1.47, 20202.57, 649.08)" xlink:href="#linear-gradient"/><linearGradient id="linear-gradient-33" x1="-397.26" y1="410.83" x2="-393.3" y2="274.68" gradientTransform="matrix(50.46, 0, 0, -1.47, 20202.57, 641.26)" xlink:href="#linear-gradient"/><linearGradient id="linear-gradient-34" x1="-402.87" y1="482.27" x2="-401.54" y2="481.06" gradientTransform="matrix(187.88, 0, 0, -206.99, 75791.5, 99909.36)" xlink:href="#linear-gradient"/></defs><title>premium assets</title><g id="qualityAsset_1" data-name="qualityAsset 1"><g id="Layer_2" data-name="Layer 2"><g id="Layer_1-2" data-name="Layer 1"><path id="Path_891" data-name="Path 891" class="cls-1" d="M99.88,295.49A407.67,407.67,0,0,0,26.7,334.91,252.66,252.66,0,0,1,29.24,306,233.55,233.55,0,0,0,0,299.41a323.5,323.5,0,0,1,84.84-45.77Z"/><path id="Path_892" data-name="Path 892" class="cls-2" d="M288.68,295.49a409,409,0,0,1,73.19,39.42A255,255,0,0,0,359.31,306a234.11,234.11,0,0,1,29.25-6.57,323.6,323.6,0,0,0-84.83-45.77Z"/><path id="Path_893" data-name="Path 893" class="cls-3" d="M83.85,255.77l12.38,34.47,1.55,4.38a409.24,409.24,0,0,0-69.29,37.23,240.28,240.28,0,0,1,2.39-25.54l.2-1.42-1.38-.4a234.08,234.08,0,0,0-25.63-6,321.68,321.68,0,0,1,79.78-42.7m1-2.19A323.36,323.36,0,0,0,0,299.44,230.45,230.45,0,0,1,29.24,306a250.25,250.25,0,0,0-2.54,29.06,407.33,407.33,0,0,1,73.18-39.42l-15-41.83Z"/><path id="Path_894" data-name="Path 894" class="cls-4" d="M304.71,255.77a320.68,320.68,0,0,1,79.78,42.7,234.44,234.44,0,0,0-25.62,6l-1.38.4.2,1.42a239.85,239.85,0,0,1,2.39,25.53,409.29,409.29,0,0,0-69.3-37.22L298.16,274l6.57-18.22m-1-2.19L288.7,295.41a407.42,407.42,0,0,1,73.19,39.42,252.29,252.29,0,0,0-2.56-28.93,232.1,232.1,0,0,1,29.26-6.57,323.52,323.52,0,0,0-84.84-45.77Z"/><path id="Path_895" data-name="Path 895" class="cls-5" d="M99.93,295.65a216.7,216.7,0,0,0-52.56-5.59L26,251.06a253.32,253.32,0,0,1,58.8,2.74Z"/><path id="Path_896" data-name="Path 896" class="cls-6" d="M288.64,295.65a216.6,216.6,0,0,1,52.56-5.59l21.35-39a253.3,253.3,0,0,0-58.8,2.74Z"/><path id="Path_897" data-name="Path 897" class="cls-7" d="M335.17,257.56a24.08,24.08,0,0,1-16.53,21.77,38.11,38.11,0,0,0-22.4,20.7,24.09,24.09,0,0,1-23,14.78,38,38,0,0,0-28.12,11.8,24.22,24.22,0,0,1-26.68,6.05A38,38,0,0,0,188,334.12a24.21,24.21,0,0,1-27.13-3.43,38,38,0,0,0-29.13-9.05,24.09,24.09,0,0,1-24.31-12.5A38.09,38.09,0,0,0,83.22,290.7a24.1,24.1,0,0,1-18.57-20.06A38.06,38.06,0,0,0,48.18,245a24.24,24.24,0,0,1-10.6-25.21,38,38,0,0,0-6.72-29.74,24.22,24.22,0,0,1-1.34-27.31,38,38,0,0,0,3.81-30.24,24.11,24.11,0,0,1,8.1-26.13,38.06,38.06,0,0,0,14-27.11A24.09,24.09,0,0,1,71.92,57.49a38.11,38.11,0,0,0,22.4-20.7,24.1,24.1,0,0,1,23-14.89,38,38,0,0,0,28.1-11.69,24.09,24.09,0,0,1,26.67-6.05A38.1,38.1,0,0,0,202.53,2.7a24.07,24.07,0,0,1,27.13,3.44,38.1,38.1,0,0,0,29.13,9,24.08,24.08,0,0,1,24.3,12.5,38,38,0,0,0,24.27,18.46A24.08,24.08,0,0,1,325.93,66.2a38.06,38.06,0,0,0,16.49,25.64A24.1,24.1,0,0,1,353,117.05a38,38,0,0,0,6.72,29.67A24.2,24.2,0,0,1,361.08,174a38,38,0,0,0-3.85,30.25,24.1,24.1,0,0,1-8.1,26.1,38.15,38.15,0,0,0-13.95,27.17Z"/><path id="Path_898" data-name="Path 898" class="cls-8" d="M333.38,256.42a23.85,23.85,0,0,1-16.32,21.49,37.59,37.59,0,0,0-22.12,20.45A23.89,23.89,0,0,1,272.26,313a37.43,37.43,0,0,0-27.75,11.63,23.92,23.92,0,0,1-26.28,6A37.42,37.42,0,0,0,188.16,332a23.88,23.88,0,0,1-26.78-3.39,37.53,37.53,0,0,0-28.8-8.89,23.89,23.89,0,0,1-24.09-12.33,37.43,37.43,0,0,0-23.87-18.33,23.94,23.94,0,0,1-18.33-19.71A37.51,37.51,0,0,0,50,244.05a23.83,23.83,0,0,1-10.44-24.88A37.7,37.7,0,0,0,33,189.81a23.85,23.85,0,0,1-1.3-27A37.64,37.64,0,0,0,35.5,133a23.82,23.82,0,0,1,8-25.78A37.69,37.69,0,0,0,57.27,80.44,23.88,23.88,0,0,1,73.58,59,37.63,37.63,0,0,0,95.7,38.52a23.91,23.91,0,0,1,22.56-14.65,37.55,37.55,0,0,0,27.79-11.65,23.9,23.9,0,0,1,26.28-6A37.54,37.54,0,0,0,202.4,4.8a23.93,23.93,0,0,1,26.78,3.41,37.54,37.54,0,0,0,28.73,8.92A23.86,23.86,0,0,1,282,29.48,37.62,37.62,0,0,0,306,47.7a23.9,23.9,0,0,1,18.33,19.71,37.56,37.56,0,0,0,16.27,25.3A23.87,23.87,0,0,1,351,117.61,37.56,37.56,0,0,0,357.6,147a23.86,23.86,0,0,1,1.29,27,37.69,37.69,0,0,0-3.79,29.87,23.83,23.83,0,0,1-8,25.78,37.56,37.56,0,0,0-13.73,26.87Z"/><path id="Path_899" data-name="Path 899" class="cls-9" d="M337,168.41A141.67,141.67,0,1,1,195.31,26.74,141.66,141.66,0,0,1,337,168.41Z"/><path id="Path_900" data-name="Path 900" class="cls-10" d="M334.14,168.41A138.87,138.87,0,1,1,195.28,29.55h0A138.86,138.86,0,0,1,334.14,168.41Z"/><circle id="Ellipse_33" data-name="Ellipse 33" class="cls-11" cx="195.28" cy="168.41" r="123.21"/><path id="Path_901" data-name="Path 901" class="cls-12" d="M103.72,272.78c1.29-2.69,2.58-5.38,3.92-8A364.92,364.92,0,0,1,296.41,73.32,138.82,138.82,0,0,0,94.58,264q4.35,4.61,9.11,8.8Z"/><path id="Path_902" data-name="Path 902" class="cls-13" d="M341.13,290c-98.55-47.43-195.08-47.43-293.7,0L26.08,251c111.68-54.75,224.77-54.75,336.4,0Z"/><path id="Path_903" data-name="Path 903" class="cls-14" d="M194.29,210v1.64c55.28,0,111.1,13.51,165.91,40.14L342,285.07l-1.53,2.8c-48.84-23.26-98-35-146.14-35s-97.3,11.8-146.15,35l-9.84-18-9.83-18.06c54.75-26.63,110.61-40.14,165.89-40.14v-1.65m0,0c-56.17,0-112.39,13.69-168.19,41.05l21.35,39c49.32-23.72,98.09-35.59,146.86-35.57s97.52,11.85,146.84,35.57l21.35-39Q278.77,210,194.27,210Z"/><path id="Path_904" data-name="Path 904" class="cls-15" d="M129.84,120.14v-4.38a1.09,1.09,0,0,0-.9-1.2,5.75,5.75,0,0,0-.83,0c-.24,0-.35,0-.35-.2s.13-.17.46-.17h6.09a5.14,5.14,0,0,1,3.94,1.2,3.61,3.61,0,0,1,1.05,2.5,5,5,0,0,1-4.81,5.13h-.91s-.24,0-.24-.2.16-.24.59-.24a3.31,3.31,0,0,0,2.83-3.48,4,4,0,0,0-1.25-3.15,3.16,3.16,0,0,0-2.19-.84,2.89,2.89,0,0,0-.83,0,.73.73,0,0,0-.18.4V124c0,1.93,0,3.61.11,4.51s.2,1,.84,1.14a9.55,9.55,0,0,0,1.07,0c.24,0,.33,0,.33.18s-.16.2-.4.2h-5.93c-.26,0-.42,0-.42-.2s0-.18.35-.18a3.14,3.14,0,0,0,.75,0c.42,0,.53-.55.61-1.16s0-2.56,0-4.38Z"/><path id="Path_905" data-name="Path 905" class="cls-16" d="M147.91,120.14v-4.38a1.09,1.09,0,0,0-.92-1.2,5.47,5.47,0,0,0-.81,0c-.24,0-.37,0-.37-.2s.15-.17.46-.17h5.87a6.74,6.74,0,0,1,3.9.9,3.67,3.67,0,0,1,1.42,2.89,5.91,5.91,0,0,1-2.83,4.66c1.89,2.36,3.33,4.25,4.58,5.54a4.38,4.38,0,0,0,2.36,1.44h.6c.17,0,.26,0,.26.18s-.15.2-.42.2h-2a4.35,4.35,0,0,1-2.19-.4,10.1,10.1,0,0,1-2.89-3.11c-.86-1.16-1.82-2.58-2.19-2.91a.48.48,0,0,0-.37-.15h-1.84s-.18,0-.18.15v4.82c0,.87.2,1.07.83,1.16a8.85,8.85,0,0,0,1,0c.18,0,.24,0,.24.18s-.13.2-.41.2h-5.67c-.29,0-.42,0-.42-.2s0-.18.33-.18a3.22,3.22,0,0,0,.76,0c.42,0,.53-.55.62-1.16s.11-2.56.11-4.38Zm2.47,1.67c0,.24,0,.33.2.39a5.8,5.8,0,0,0,1.6.2,2.17,2.17,0,0,0,1.51-.35,3.71,3.71,0,0,0,1.25-3.17,3.36,3.36,0,0,0-2.85-3.82l-.39,0a5.24,5.24,0,0,0-1.12,0,.25.25,0,0,0-.2.28h0Z"/><path id="Path_906" data-name="Path 906" class="cls-17" d="M168.08,120.14v-4.38a1.09,1.09,0,0,0-.92-1.2,5.47,5.47,0,0,0-.81,0c-.24,0-.37,0-.37-.2s.15-.17.46-.17h8.32l.87-.31H176c.11,0,.13,0,.13.2a12.32,12.32,0,0,0-.17,1.36v1.4c0,.26,0,.22-.2.22s-.2,0-.2-.29a2.36,2.36,0,0,0-.33-.7c-.15-.37-.35-.61-1.42-.74h-3c-.41,0-.15,0-.15.22v5.32c0,.15,0,.24.15.24h3.38a1.27,1.27,0,0,0,1-.33c.18-.22.24-.26.35-.26s.13,0,.13.18a9.91,9.91,0,0,1-.15,1.53v1.4c0,.13,0,.41-.2.41a.18.18,0,0,1-.2-.14v-.06a3.22,3.22,0,0,0,0-.76c-.11-.42-.41-.72-1.18-.81h-3s-.13,0-.13.22v4.92c0,1.47.37,1.78,2.54,1.78a5.5,5.5,0,0,0,2-.24c.55-.27.81-.7,1-1.58,0-.22,0-.31.22-.31s.18.16.18.38a16.81,16.81,0,0,1-.29,2.34c-.13.55-.33.55-1.14.55h-8.47c-.28,0-.41,0-.41-.2s0-.18.33-.18a3.22,3.22,0,0,0,.76,0c.42,0,.53-.55.62-1.16s0-2.56,0-4.38Z"/><path id="Path_907" data-name="Path 907" class="cls-18" d="M186.43,114.27c0-.35.18-.54.35-.54s.29,0,.57.65l5.76,11.74,5.74-11.89c.17-.33.28-.5.46-.5s.33.22.39.66l1.91,12.92c.2,1.34.41,1.95,1,2.19a4,4,0,0,0,1.29.22c.2,0,.35,0,.35.15s-.26.22-.55.22h-4.38c-.48,0-.61,0-.61-.22s0-.17.24-.24.29-.42.29-1.07L198,119.38h0l-4.6,9.4c-.49,1-.59,1.18-.79,1.18s-.4-.42-.75-1.05-2.19-4.2-2.41-4.8-1.46-2.94-2.19-4.51h0l-1.11,8.23v1a.73.73,0,0,0,.61.68,4.51,4.51,0,0,0,.9,0c.18,0,.31,0,.31.15s-.18.22-.5.22h-4.27c-.22,0-.4,0-.4-.22s.13-.15.35-.15a3.42,3.42,0,0,0,.64,0c.59-.14.74-.95.85-1.67Z"/><path id="Path_908" data-name="Path 908" class="cls-19" d="M211.9,120.14v-4.38a1.1,1.1,0,0,0-.72-1.18,3.31,3.31,0,0,0-.77,0c-.2,0-.33,0-.33-.22s.18-.15.5-.15h5.33c.26,0,.43,0,.43.15s-.13.22-.33.22a3.32,3.32,0,0,0-.63,0c-.57,0-.75.46-.79,1.2s0,1.27,0,4.38v8.35a.91.91,0,0,0,.76,1h.1a6.37,6.37,0,0,0,1.07,0c.22,0,.33,0,.33.18s-.16.2-.4.2H210.5c-.26,0-.42,0-.42-.2s0-.18.33-.18a3.31,3.31,0,0,0,.77,0c.41,0,.54-.43.61-1.05s.11-2.56.11-4.6Z"/><path id="Path_909" data-name="Path 909" class="cls-20" d="M224.76,120.15v-4.38a1.08,1.08,0,0,0-.9-1.2,3.93,3.93,0,0,0-.84,0c-.22,0-.35,0-.35-.2s.16-.18.46-.18h5.68c.32,0,.45,0,.45.18s0,.2-.32.2a3.21,3.21,0,0,0-.62,0c-.57,0-.74.46-.78,1.2s0,1.27,0,4.38v2.95c0,3.07.59,4.38,1.64,5.19a3.85,3.85,0,0,0,2.63.88,4.2,4.2,0,0,0,2.91-1.14,7.25,7.25,0,0,0,1.22-5.23v-7a1.07,1.07,0,0,0-.9-1.2,3.22,3.22,0,0,0-.76,0c-.24,0-.37,0-.37-.2s.15-.18.46-.18h4.81c.31,0,.46,0,.46.18s-.13.2-.39.2a3.11,3.11,0,0,0-.61,0c-.57,0-.73.46-.77,1.2s0,1.27,0,4.38v2.19a8,8,0,0,1-2,6.35,6.27,6.27,0,0,1-4.38,1.53,6.77,6.77,0,0,1-4.68-1.47,6.89,6.89,0,0,1-1.89-5.59Z"/><path id="Path_910" data-name="Path 910" class="cls-21" d="M248.32,114.27c0-.35.2-.54.37-.54s.29,0,.57.65L255,126.12l5.74-11.89c.17-.33.28-.5.46-.5s.33.22.39.66l1.91,12.92c.2,1.34.41,1.95,1,2.19a4.14,4.14,0,0,0,1.31.22c.2,0,.35,0,.35.15s-.26.22-.55.22h-4.38c-.48,0-.61,0-.61-.22s0-.17.24-.24.18-.31,0-.9l-1.25-9.18h0l-4.6,9.4c-.5,1-.59,1.18-.78,1.18s-.4-.41-.75-1-2.19-4.2-2.43-4.8-1.45-2.93-2.19-4.51h0l-1.1,8.23a8.18,8.18,0,0,0,0,1c0,.42.29.59.64.68a4.51,4.51,0,0,0,.9,0c.15,0,.31,0,.31.15s-.2.22-.5.22h-4.38c-.2,0-.38,0-.38-.22s.14-.15.33-.15a3.42,3.42,0,0,0,.64,0c.59-.13.76-.94.87-1.67Z"/><path id="Path_911" data-name="Path 911" class="cls-22" d="M121.83,189.52a28.52,28.52,0,0,1-6.29.92q-6.92,0-9.59-4.82c-1.75-3.22-2.65-8.76-2.65-16.64a86.3,86.3,0,0,1,1.09-16.21,11.94,11.94,0,0,1,4-7.2,12.9,12.9,0,0,1,8-2.19,10.37,10.37,0,0,1,9.39,4.38c2,3,2.91,9.42,2.91,19.36q0,15.69-3.48,19.58l3.42,4.68-3.4,2.5Zm-.84-8.23c.72-1.54,1.08-6,1.08-13.47q0-13.14-1.43-16.32a5.08,5.08,0,0,0-9.54.55,41.61,41.61,0,0,0-1.27,12.37q0,15.17,1.44,18.09a4.68,4.68,0,0,0,4.38,3,7.26,7.26,0,0,0,2.8-.53l-4.18-5.62,3.52-2.59Z"/><path id="Path_912" data-name="Path 912" class="cls-23" d="M159.39,179.14q0,11.38-10.25,11.41c-7.49,0-11.17-3.76-11.17-11.34V144.39h6.09v32.23a19.06,19.06,0,0,0,.9,7.19,3.78,3.78,0,0,0,3.9,2,3.49,3.49,0,0,0,3.74-2.19,24.52,24.52,0,0,0,.7-7.34V144.39h6.09Z"/><path id="Path_913" data-name="Path 913" class="cls-24" d="M191.67,189.92h-5.94l-1.66-9h-9.66l-1.69,9h-5.84l9.83-45.62h5.06Zm-8.41-13.65-4-21.63h-.15l-3.79,21.63Z"/><path id="Path_914" data-name="Path 914" class="cls-25" d="M217.09,189.92H200.6V144.3h6.15v40.49h10.34Z"/><path id="Path_915" data-name="Path 915" class="cls-26" d="M227.16,144.3h6.16v45.62h-6.16Z"/><path id="Path_916" data-name="Path 916" class="cls-27" d="M262.29,149.49h-7v40.43h-6.16V149.49h-6.94V144.3h20.08Z"/><path id="Path_917" data-name="Path 917" class="cls-28" d="M291.26,144.3l-8.87,26.28V190h-6.24v-19.2l-8.76-26.46h6.11l5.68,20.57h.13l5.73-20.5Z"/><path id="Path_918" data-name="Path 918" class="cls-29" d="M164.36,284.74l5.36-3.2,5.39,3.18-1.38-6.09,4.71-4.14-6.24-.59-2.48-5.74-2.47,5.74-6.24.59,4.7,4.14Z"/><path id="Path_919" data-name="Path 919" class="cls-30" d="M189.41,284.17l6.53-3.85,6.52,3.85-1.66-7.4,5.71-5-7.57-.7-3-7-3,7-7.56.73,5.72,5Z"/><path id="Path_920" data-name="Path 920" class="cls-31" d="M217.16,284.74l5.38-3.2,5.37,3.18-1.36-6.09,4.69-4.14L225,273.9l-2.5-5.74L220,273.9l-6.22.59,4.69,4.14Z"/><rect id="Rectangle_67" data-name="Rectangle 67" class="cls-32" x="172.48" y="93.32" width="50.46" height="1.45"/><rect id="Rectangle_68" data-name="Rectangle 68" class="cls-33" x="172.48" y="85.52" width="50.46" height="1.47"/><rect id="Rectangle_69" data-name="Rectangle 69" class="cls-34" x="172.48" y="77.7" width="50.46" height="1.47"/><path id="Path_921" data-name="Path 921" class="cls-35" d="M216.45,130c.25,0,.4,0,.4-.2s0-.18-.33-.18h-.4a2.67,2.67,0,0,0,0,.4Zm-38.19,15.87h3.83l-.32-1.55h-5.06l-9.84,45.62h1.89Zm33.53-17.38c0,.61-.2,1-.61,1.05a3.31,3.31,0,0,1-.77,0c-.24,0-.33,0-.33.17s.16.2.42.2h2.85V117.28a1.13,1.13,0,0,0-.73-1.19,3.22,3.22,0,0,0-.76,0h0V124a38.87,38.87,0,0,1-.07,4.45ZM188,115.72l-.66-1.33c-.28-.55-.39-.66-.57-.66s-.31.2-.35.55l-2.19,13.6c0,.72-.26,1.53-.85,1.66a2.29,2.29,0,0,1-.64,0c-.22,0-.35,0-.35.15s.18.22.4.22h2.91V129a.49.49,0,0,1,0-.24v-1l1.11-8.24h0l.24.49.64-4.25S188,115.76,188,115.72Zm-13.75,5.17h-2V122h1.58a1.3,1.3,0,0,1,.92.42h.77v-.44a6.57,6.57,0,0,1,.15-1.53c0-.11,0-.18-.13-.18s-.2,0-.35.27-.46.35-1,.39Zm1.22,2.74h-.28a.18.18,0,0,0,.14.2h.06a.49.49,0,0,0,.08-.21Zm-3.17,5.23a1.56,1.56,0,0,0,.37,1.14h2.5c.81,0,1,0,1.14-.55a15.26,15.26,0,0,0,.28-2.34c0-.22,0-.37-.17-.37s-.2,0-.22.3c-.15.88-.42,1.32-1,1.58a5.45,5.45,0,0,1-2,.24Zm3.5-12h-.38c0,.18,0,.27.18.27a.21.21,0,0,0,.21-.19.22.22,0,0,0,0-.08Zm5,39.42h-.13l-.55,3.09,3.15,17h-6.13l-.26,1.56h7.93Zm18.92-41.81c0-.43-.13-.65-.4-.65s-.28.17-.46.5L193.5,125.4l.73,1.47,3.61-7.4h0l.18,1.2,1.92-4Zm-12,15.34s0-.14-.22-.14a1.82,1.82,0,0,0,0,.33c.11-.06.22-.13.22-.24ZM200.6,190h1.53V145.85h4.62V144.3H200.6Zm2.69-60.34a.58.58,0,0,0,.13.44h.25c.28,0,.54,0,.54-.22s-.15-.15-.35-.15Zm13.8,55.21h-8.76v1.56h8.76Zm-1.75-70.32a3.42,3.42,0,0,1,.64,0c.2,0,.32,0,.32-.22s-.17-.15-.43-.15h-5.33c-.32,0-.5,0-.5.15s.13.22.33.22a3.31,3.31,0,0,1,.77,0c.44,0,.66.46.7,1.12h2.71c.07-.7.22-1,.79-1.16ZM168,128.36c0,.61-.2,1.07-.61,1.16a3.3,3.3,0,0,1-.77,0c-.24,0-.33,0-.33.17s.13.2.42.2h2.84V117.41a1.07,1.07,0,0,0-.9-1.2,3.31,3.31,0,0,0-.63,0v7.9A30.14,30.14,0,0,1,168,128.36Zm76.8,1.62h3v-1.14a8.18,8.18,0,0,1,0-1l1.1-8.23h0c0,.15.15.31.22.48l.65-4.25h0l-.65-1.33c-.29-.55-.42-.66-.57-.66s-.31.2-.38.55L246,128c0,.72-.28,1.53-.87,1.66a2.29,2.29,0,0,1-.64,0c-.2,0-.32,0-.32.15s.43.16.63.16Zm21.09-.33h-.66a.64.64,0,0,0,.11.44h.35c.29,0,.55,0,.55-.22s-.16-.22-.35-.22Zm-6.11-10.27h0l.15,1.2,1.93-4-.31-2.19q0-.66-.39-.66c-.18,0-.29.18-.46.5l-5.35,11.09.73,1.47Zm-6.13,9.52c.35.64.54,1.06.74,1.06s.2,0,.37-.35c-.7-1.36-1.8-3.46-2-4s-1.45-2.93-2.19-4.51h0l-.15,1.16c.43.86.78,1.58.87,1.8.18.59,1.84,3.84,2.35,4.8Zm31.51,15.33L279.87,163l.95,3.37H281l5.74-20.5h4l.53-1.55Zm-35.47-14.47s0-.13-.25-.13a1.82,1.82,0,0,1,0,.33C249.48,129.93,249.66,129.87,249.66,129.76ZM261.35,121l-1,2,.76,5.63v.9s-.24.13-.24.24.13.18.61.22h1.25l-1.25-9.07ZM200.49,272.59l4.58.41,1.44-1.27-6.57-.61Zm27.79-158.12a3.11,3.11,0,0,1,.61,0c.22,0,.33,0,.33-.2s-.13-.17-.46-.17h-5.67c-.31,0-.46,0-.46.17s.13.2.35.2a3.84,3.84,0,0,1,.83,0c.66.13.83.46.9,1.1h2.8c.05-.64.24-1,.77-1.1Zm-54.53,161,3.24.3,1.45-1.27-5.33-.5Zm52.89-146.73a4.51,4.51,0,0,0,.68.46,8.18,8.18,0,0,1-1-4.49v-7.38a1.1,1.1,0,0,0-.9-1.2q-.32,0-.63,0v7.27a6.91,6.91,0,0,0,1.86,5.44Zm.52,61.1h1.56v-44h4.6V144.3h-6.16Zm9.36-73.76a2.15,2.15,0,0,0-.62,0v6.83a7.27,7.27,0,0,1-1.22,5.24,4.4,4.4,0,0,1-4.89.7,3.43,3.43,0,0,0,1.56,1.55h0a6.27,6.27,0,0,0,4.38-1.53,5.51,5.51,0,0,0,1.71-3v-8.41a1.29,1.29,0,0,0-.92-1.36Zm-9.9,159.43,3.21.31,1.45-1.27L226,274Zm12.5-161.42h-4.81c-.31,0-.46,0-.46.17s.13.2.37.2a4.82,4.82,0,0,1,.76,0c.66.13.84.46.88,1.1h1.95c0-.7.22-1,.77-1.16a3.11,3.11,0,0,1,.61,0c.26,0,.39,0,.39-.2s-.2-.16-.5-.16ZM162.06,130c.26,0,.41,0,.41-.2s0-.18-.26-.18h-.59a3.49,3.49,0,0,1-1.58-.74l.77.85a2.91,2.91,0,0,0,.37.33ZM138,179.21a10.83,10.83,0,0,0,3.63,9.13,12.44,12.44,0,0,1-2.19-7.66V145.92H144v-1.53h-6Zm29.34,94.69-6.24.59,1.75,1.53,6.05-.57,2-4.73-1.11-2.56ZM123,191.17l2.19,2.82.24-.18-2-2.73Zm41.22,93.53,2.19-1.32.74-3.24-1.6-1.4ZM125.09,147.15a10.61,10.61,0,0,0-8.76-3.73,12.9,12.9,0,0,0-8,2.19,11.88,11.88,0,0,0-4,7.2,85.48,85.48,0,0,0-1.1,16.21c0,7.87.9,13.43,2.65,16.65a8.68,8.68,0,0,0,2.41,2.67,7.47,7.47,0,0,1-.87-1.16c-1.75-3.22-2.65-8.76-2.65-16.65A85.16,85.16,0,0,1,106,154.35a11.79,11.79,0,0,1,4-7.2,12.9,12.9,0,0,1,8-2.19A11.53,11.53,0,0,1,125.09,147.15ZM119,178.51l-1.24-1.78-3.53,2.59,4.18,5.62a7.26,7.26,0,0,1-2.8.53,4.42,4.42,0,0,1-2.32-.63,4.53,4.53,0,0,0,3.88,2.19,7.26,7.26,0,0,0,2.8-.53l-4.2-5.65Zm3.16-25.45a5,5,0,0,0-2.08-2.43,5.24,5.24,0,0,1,.54.87q1.41,3.12,1.43,16.32a54.14,54.14,0,0,1-.92,13.14l1.4,2q1.07-2.19,1.07-13.45,0-13.3-1.44-16.42Zm95,131.64,2.19-1.32.72-3.24-1.58-1.4Zm32-94.83h1.55V151.11h-1.55Zm-6.95-40.38h1.56v-3.63H262.3V144.3H242.21ZM274,145.86l-.43-1.56h-6.11l8.76,26.46v19.16h1.55V172.4L269,145.94ZM193,271l-7.55.73,1.75,1.53,7.36-.7,2.54-6-1.1-2.56ZM135.78,115.57a6.38,6.38,0,0,1,3,.61,3.08,3.08,0,0,0-.66-.94,5.13,5.13,0,0,0-3.94-1.2h-6.09c-.32,0-.46,0-.46.17s0,.2.35.2a5.89,5.89,0,0,1,.84,0c.65.13.83.46.87,1.1h2.65v-.23c0-.22,0-.35.18-.39a2.89,2.89,0,0,1,.83,0,3.14,3.14,0,0,1,1.88.66Zm53.58,168.62,2.2-1.29,1-4.55L191,277ZM220,273.92l-6.21.59,1.72,1.54,6.05-.57,2-4.73-1.12-2.56Zm2.9-180.58H172.55v1.47h50.37Zm0-7.8H172.55V87h50.37ZM153.3,176.27a24.8,24.8,0,0,1-.77,7.43,3.48,3.48,0,0,1-3.74,2.19,5.48,5.48,0,0,1-2.37-.46h0a3.85,3.85,0,0,0,3.9,2c2,0,3.26-.7,3.77-2.19a24.41,24.41,0,0,0,.76-7.42V145.92h4.54v-1.53H153.3Zm13-61.86a3.57,3.57,0,0,1,.8,0c.66.13.86.46.9,1.09h2.71v-.26c0-.15,0-.22.16-.22h3a1.89,1.89,0,0,1,1.19.39h.85a.81.81,0,0,0,0-.22,10.41,10.41,0,0,1,.18-1.35s0-.2-.13-.2a.91.91,0,0,0-.33,0l-.92.13h-8.26c-.3,0-.46,0-.46.17S166.06,114.41,166.31,114.41Zm-31.87,15.2h-.37V130h.28c.25,0,.4,0,.4-.2s-.07-.15-.31-.15Zm88.5-51.9H172.57v1.46h50.37Zm-34.38,43.44-.16,1.16c.44.86.79,1.58.9,1.8.24.59,1.91,3.84,2.41,4.8s.55,1.05.75,1.05.21,0,.37-.35c-.7-1.35-1.78-3.46-2-3.94s-1.44-2.93-2.19-4.51Zm10.94-.24h0l-1,2,.77,5.63v.9s-.24.13-.24.24.13.18.61.22h1.27Zm-12.48,69-1.38-7.47h-1.27l1.38,7.47Zm-56.59-73.85a3.11,3.11,0,0,0-.61,0v12.29c0,.76-.2,1.07-.61,1.16a3.14,3.14,0,0,1-.75,0c-.26,0-.35,0-.35.17s.16.2.42.2h2.87V117.41A1.25,1.25,0,0,0,130.43,116.07ZM147,114.52c.65.13.85.46.9,1.09h2.54v-.24a.23.23,0,0,1,.19-.28h0a5.15,5.15,0,0,1,1.11,0,3.28,3.28,0,0,1,1.75.57h.2a7.83,7.83,0,0,1,3.38.64,3.85,3.85,0,0,0-1-1.27,6.74,6.74,0,0,0-3.9-.9h-5.88c-.3,0-.46,0-.46.17s.13.2.38.2a4.37,4.37,0,0,1,.81,0Zm-8.61,5.93a4,4,0,0,0-1.25-3.15,2.49,2.49,0,0,0-.77-.5,4.37,4.37,0,0,1,.46,2.19,3.33,3.33,0,0,1-2.8,3.48v.44h0a5.1,5.1,0,0,0,4.2-2A1,1,0,0,0,138.34,120.45Zm19.07,8.87c-.3-.37-.63-.81-1-1.31a33,33,0,0,0-2.19-2.91.44.44,0,0,0-.37-.16h-.18c.35.48.72,1,1.09,1.51a11.81,11.81,0,0,0,2.66,2.89Zm-8.32.57h.27V117.41a1.08,1.08,0,0,0-.9-1.2,3.42,3.42,0,0,0-.64,0v7.9c0,1.93,0,3.62-.11,4.38s-.2,1.08-.61,1.16a3.31,3.31,0,0,1-.77,0c-.24,0-.33,0-.33.18s.13.2.42.2Zm2.94-.33a1.82,1.82,0,0,0,0,.33h0c.28,0,.41,0,.41-.2s0-.17-.24-.17Zm1-5.67h.7a2.17,2.17,0,0,0,1.49-.35l.13-.13-.72-.76a9.89,9.89,0,0,0,1.84-1.93v-.26a3.52,3.52,0,0,0-1.95-3.57,4.65,4.65,0,0,1,.42,2,3.76,3.76,0,0,1-1.25,3.18,2.23,2.23,0,0,1-1.51.35h-.24v1h.46a.51.51,0,0,1,.37.15l.26.33Z"/><path id="Path_922" data-name="Path 922" d="M116.66,250.51a22,22,0,0,1-6.57,2.56,12,12,0,0,1-9-1,11.43,11.43,0,0,1-5.06-7.36c-1.53-6.57,2.19-12.46,10-14.1a15.17,15.17,0,0,1,6-.17c-.11,1-.15,1.49-.26,2.47a12.65,12.65,0,0,0-5.34,0c-5.68,1.19-8.61,5.37-7.34,10.84a8.44,8.44,0,0,0,9.54,7.16,7,7,0,0,0,1.1-.24,10.29,10.29,0,0,0,3.75-1.38l-1.32-6.57-4.62,1-.48-2.19c3-.64,4.51-1,7.53-1.51C115.43,244.16,115.85,246.26,116.66,250.51Z"/><path id="Path_923" data-name="Path 923" d="M120.25,228.07c.92,5.23,1.38,7.86,2.19,13.14s3.46,6.57,6.46,6.17c3.33-.52,5.15-3,4.38-7.9-.77-5.26-1.16-7.89-1.93-13.14l3.09-.44c.72,5.17,1.1,7.77,1.82,12.94.94,6.81-2.19,10.12-7.14,10.95s-8.48-1.2-9.72-8l-2.35-13Z"/><path id="Path_924" data-name="Path 924" d="M144.32,240.07c-.62,2.91-.9,4.38-1.49,7.27l-3,.39c1.86-9.28,2.87-13.93,5.08-23.21l3.68-.42c4.18,8.59,6.22,12.9,10,21.55l-3.15.28c-1.23-2.71-1.86-4.07-3.13-6.76C149.18,239.47,147.56,239.67,144.32,240.07Zm7.27-3.09c-1.16-2.48-1.75-3.72-3-6.18-.68-1.4-1.16-2.69-1.64-3.94h0c-.2,1.36-.44,2.76-.72,4.18-.62,2.67-.92,4-1.51,6.7C147.43,237.42,148.92,237.26,151.59,237Z"/><path id="Path_925" data-name="Path 925" d="M160.17,223.38a34,34,0,0,1,5.85-.9,10.05,10.05,0,0,1,7,1.44,5.5,5.5,0,0,1,2.05,4.16A6,6,0,0,1,171,234h0a5.58,5.58,0,0,1,3.61,4.38,36.09,36.09,0,0,0,2,6.07l-3,.13a30,30,0,0,1-1.8-5.26c-.86-3-2.19-4.16-4.87-4.07l-2.8.17c.29,3.88.42,5.83.7,9.68l-2.91.24Zm3.81,9.94,3.05-.2c3.22-.22,5.14-2,5-4.55s-2.45-4.06-5.65-3.88a12.28,12.28,0,0,0-3,.48c.22,3.22.35,4.78.59,8.1Z"/><path id="Path_926" data-name="Path 926" d="M183.52,237.2c-.88,2.84-1.29,4.25-2.19,7.1h-3c2.71-9.07,4.16-13.6,7.22-22.63h3.7c3.35,8.94,5,13.43,8,22.4h-3.06c-1-2.8-1.47-4.22-2.48-7C188.34,237.09,186.79,237.11,183.52,237.2Zm7.53-2.39c-.94-2.58-1.4-3.85-2.36-6.44-.53-1.44-.9-2.78-1.27-4.07h0c-.33,1.33-.68,2.71-1.12,4.1-.85,2.6-1.29,3.9-2.19,6.57,2.76-.11,4.23-.13,6.94-.15Z"/><path id="Path_927" data-name="Path 927" d="M200.53,244.14l.33-22.4h3.38c2.93,4.6,4.37,6.92,7.16,11.58a56.07,56.07,0,0,1,3.79,7.45h0c-.14-3,0-5.74,0-9.22s.28-5.61.46-9.37l2.91.15c-.53,9-.77,13.45-1.27,22.38l-2.67-.11c-2.63-4.69-4-7-6.81-11.65a79.86,79.86,0,0,1-4.14-7.6h0c0,2.85.13,5.54,0,9.26l-.22,9.57Z"/><path id="Path_928" data-name="Path 928" d="M228.39,225.57c-2.87-.22-4.38-.33-7.18-.5a12.71,12.71,0,0,1,.15-2.46c7,.44,10.56.73,17.52,1.47a17.88,17.88,0,0,1-.26,2.43c-2.87-.28-4.38-.44-7.2-.68-.68,7.95-1,11.94-1.73,19.87l-2.94-.24C227.45,237.44,227.76,233.45,228.39,225.57Z"/><path id="Path_929" data-name="Path 929" d="M252.17,237.59c-3.57-.48-5.36-.72-8.95-1.14-.38,3.22-.57,4.82-.95,8,3.92.46,5.87.72,9.79,1.27-.13,1-.2,1.44-.35,2.41-5-.73-7.55-1-12.61-1.6,1-8.9,1.47-13.36,2.45-22.28,5.13.57,7.69.9,12.79,1.6-.13,1-.2,1.45-.35,2.41-3.85-.54-5.78-.79-9.66-1.25-.32,2.83-.5,4.23-.83,7.06,3.61.41,5.41.63,9,1.14Z"/><path id="Path_930" data-name="Path 930" d="M268.88,240.26c-3.55-.63-5.34-.94-8.91-1.51l-1.25,8c3.9.61,5.85.94,9.72,1.64l-.43,2.38c-5-.9-7.54-1.33-12.57-2.19,1.33-8.76,2-13.29,3.35-22.16,5.1.77,7.64,1.19,12.74,2.19L271.1,231c-3.86-.7-5.79-1-9.64-1.64-.44,2.8-.66,4.2-1.12,7,3.59.57,5.39.88,9,1.54C269.15,238.86,269.06,239.32,268.88,240.26Z"/><path id="Path_931" data-name="Path 931" d="M275.94,229.77a41.56,41.56,0,0,1,6.57.83,14,14,0,0,1,8.76,4.8,10,10,0,0,1,1.38,8.61,12,12,0,0,1-5.24,7.71,14.71,14.71,0,0,1-10.53,1c-2.06-.44-3.74-.88-5.17-1.32Zm-.86,20a19.36,19.36,0,0,0,2.9.77c6.15,1.27,10.27-1.32,11.65-7.19,1.2-5.12-1.12-9.17-7.49-10.49a19,19,0,0,0-3.6-.44c-1.42,6.95-2.12,10.43-3.5,17.35Z"/></g></g></g></svg>