<svg id="Layer_1" data-name="Layer 1" xmlns="http://www.w3.org/2000/svg" xmlns:xlink="http://www.w3.org/1999/xlink" viewBox="0 0 388.59 336.79"><defs><style>.cls-1{fill:url(#linear-gradient);}.cls-2{fill:url(#linear-gradient-2);}.cls-3{fill:url(#linear-gradient-3);}.cls-4{fill:url(#linear-gradient-4);}.cls-5{fill:url(#linear-gradient-5);}.cls-6{fill:url(#linear-gradient-6);}.cls-7{fill:url(#linear-gradient-7);}.cls-8{fill:url(#linear-gradient-8);}.cls-9{fill:url(#linear-gradient-9);}.cls-10{fill:url(#linear-gradient-10);}.cls-11{fill:url(#linear-gradient-11);}.cls-12{opacity:0.6;isolation:isolate;fill:url(#radial-gradient);}.cls-13{fill:url(#linear-gradient-12);}.cls-14{fill:url(#linear-gradient-13);}.cls-15{fill:url(#linear-gradient-14);}.cls-16{fill:url(#linear-gradient-15);}.cls-17{fill:url(#linear-gradient-16);}.cls-18{fill:url(#linear-gradient-17);}.cls-19{fill:url(#linear-gradient-18);}.cls-20{fill:url(#linear-gradient-19);}.cls-21{fill:url(#linear-gradient-20);}.cls-22{fill:url(#linear-gradient-21);}.cls-23{fill:url(#linear-gradient-22);}.cls-24{fill:url(#linear-gradient-23);}.cls-25{fill:url(#linear-gradient-24);}.cls-26{fill:url(#linear-gradient-25);}.cls-27{fill:url(#linear-gradient-26);}.cls-28{fill:url(#linear-gradient-27);}.cls-29{fill:url(#linear-gradient-28);}.cls-30{fill:url(#linear-gradient-29);}.cls-31{fill:url(#linear-gradient-30);}.cls-32{fill:url(#linear-gradient-31);}.cls-33{fill:url(#linear-gradient-32);}.cls-34{fill:url(#linear-gradient-33);}</style><linearGradient id="linear-gradient" x1="-837.84" y1="480.51" x2="-836.78" y2="481.22" gradientTransform="matrix(99.88, 0, 0, -81.27, 83708.22, 39361.58)" gradientUnits="userSpaceOnUse"><stop offset="0" stop-color="#b07515"/><stop offset="0.09" stop-color="#e1ba60"/><stop offset="0.14" stop-color="#f5d77f"/><stop offset="0.26" stop-color="#ffffd7"/><stop offset="0.36" stop-color="#f5d77f"/><stop offset="0.49" stop-color="#b07515"/><stop offset="0.57" stop-color="#e1ba60"/><stop offset="0.61" stop-color="#f5d77f"/><stop offset="0.74" stop-color="#ffffd7"/><stop offset="0.84" stop-color="#f5d77f"/><stop offset="1" stop-color="#b07515"/></linearGradient><linearGradient id="linear-gradient-2" x1="-837.2" y1="480.42" x2="-838.25" y2="481.21" gradientTransform="matrix(99.88, 0, 0, -81.27, 83996.9, 39361.58)" xlink:href="#linear-gradient"/><linearGradient id="linear-gradient-3" x1="-838.05" y1="480.72" x2="-837.05" y2="480.72" gradientTransform="matrix(99.88, 0, 0, -81.45, 83708.22, 39446.56)" xlink:href="#linear-gradient"/><linearGradient id="linear-gradient-4" x1="-838.05" y1="480.72" x2="-837.05" y2="480.72" gradientTransform="matrix(99.88, 0, 0, -81.27, 83996.92, 39361.49)" xlink:href="#linear-gradient"/><linearGradient id="linear-gradient-5" x1="-835.08" y1="479.29" x2="-834.08" y2="479.29" gradientTransform="matrix(73.91, 0, 0, -45.2, 61747.32, 21939.28)" gradientUnits="userSpaceOnUse"><stop offset="0" stop-color="#161a1f"/><stop offset="0.14" stop-color="#2a323b"/><stop offset="0.26" stop-color="#343f4a"/><stop offset="0.36" stop-color="#2a323b"/><stop offset="0.49" stop-color="#161a1f"/><stop offset="0.61" stop-color="#2a323b"/><stop offset="0.74" stop-color="#343f4a"/><stop offset="0.84" stop-color="#2a323b"/><stop offset="1" stop-color="#161a1f"/></linearGradient><linearGradient id="linear-gradient-6" x1="-835.08" y1="479.29" x2="-834.08" y2="479.29" gradientTransform="matrix(73.91, 0, 0, -45.2, 62009.95, 21939.28)" xlink:href="#linear-gradient-5"/><linearGradient id="linear-gradient-7" x1="-844.02" y1="482.07" x2="-843.05" y2="482.07" gradientTransform="matrix(338.72, 0, 0, -336.79, 285919.75, 162524.4)" xlink:href="#linear-gradient"/><linearGradient id="linear-gradient-8" x1="-843.85" y1="482.42" x2="-843.15" y2="481.72" gradientTransform="matrix(334.3, 0, 0, -332.49, 282174.82, 160448.49)" xlink:href="#linear-gradient"/><linearGradient id="linear-gradient-9" x1="-843.51" y1="481.99" x2="-842.56" y2="481.99" gradientTransform="matrix(283.33, 0, 0, -283.33, 239054.3, 136730.14)" xlink:href="#linear-gradient"/><linearGradient id="linear-gradient-10" x1="-843.35" y1="482.34" x2="-842.68" y2="481.67" gradientTransform="matrix(277.73, 0, 0, -277.73, 234316.53, 134028.14)" gradientUnits="userSpaceOnUse"><stop offset="0" stop-color="#0f1115"/><stop offset="0.14" stop-color="#1c2228"/><stop offset="0.26" stop-color="#232a32"/><stop offset="0.36" stop-color="#1c2228"/><stop offset="0.49" stop-color="#0f1115"/><stop offset="0.61" stop-color="#1c2228"/><stop offset="0.74" stop-color="#232a32"/><stop offset="0.84" stop-color="#1c2228"/><stop offset="1" stop-color="#0f1115"/></linearGradient><linearGradient id="linear-gradient-11" x1="-842.96" y1="482.28" x2="-842.29" y2="481.61" gradientTransform="matrix(246.41, 0, 0, -246.41, 207822.24, 118918.17)" xlink:href="#linear-gradient-5"/><radialGradient id="radial-gradient" cx="-842.23" cy="481.91" r="0.86" gradientTransform="matrix(242.85, 0, 0, -242.95, 204790.31, 117231.58)" gradientUnits="userSpaceOnUse"><stop offset="0" stop-color="#e8e8e8"/><stop offset="0.05" stop-color="#a6a6a6"/><stop offset="0.14" stop-color="#606060"/><stop offset="0.21" stop-color="#4c4c4c"/><stop offset="0.33" stop-color="#303030"/><stop offset="0.45" stop-color="#1b1b1b"/><stop offset="0.59" stop-color="#0c0c0c"/><stop offset="0.76" stop-color="#030303"/><stop offset="1"/></radialGradient><linearGradient id="linear-gradient-12" x1="-844.01" y1="480.69" x2="-843.01" y2="480.69" gradientTransform="matrix(336.4, 0, 0, -80.06, 283952.04, 38734.81)" xlink:href="#linear-gradient"/><linearGradient id="linear-gradient-13" x1="-843.88" y1="482.09" x2="-843.02" y2="478.49" gradientTransform="matrix(336.4, 0, 0, -80.11, 283953.81, 38758.13)" xlink:href="#linear-gradient"/><linearGradient id="linear-gradient-14" x1="-798.1" y1="474.33" x2="-794.98" y2="471.05" gradientTransform="matrix(17.43, 0, 0, -16.58, 14071.17, 8131.78)" xlink:href="#linear-gradient"/><linearGradient id="linear-gradient-15" x1="-807.1" y1="476.35" x2="-804.53" y2="473.64" gradientTransform="matrix(21.15, 0, 0, -20.1, 17242.94, 9827.85)" xlink:href="#linear-gradient"/><linearGradient id="linear-gradient-16" x1="-799.57" y1="475.92" x2="-796.44" y2="472.64" gradientTransform="matrix(17.41, 0, 0, -16.58, 14107.91, 8131.78)" xlink:href="#linear-gradient"/><linearGradient id="linear-gradient-17" x1="-830.2" y1="415.12" x2="-826.24" y2="276.94" gradientTransform="matrix(50.46, 0, 0, -1.45, 42039.29, 646.25)" xlink:href="#linear-gradient"/><linearGradient id="linear-gradient-18" x1="-830.12" y1="413.5" x2="-826.16" y2="277.35" gradientTransform="matrix(50.46, 0, 0, -1.47, 42039.29, 649.08)" xlink:href="#linear-gradient"/><linearGradient id="linear-gradient-19" x1="-830.04" y1="410.83" x2="-826.08" y2="274.68" gradientTransform="matrix(50.46, 0, 0, -1.47, 42039.29, 641.26)" xlink:href="#linear-gradient"/><linearGradient id="linear-gradient-20" x1="241.57" y1="124.03" x2="118.68" y2="121.23" gradientTransform="matrix(1, 0, 0, 1, 0, 0)" xlink:href="#linear-gradient"/><linearGradient id="linear-gradient-21" x1="241.58" y1="123.82" x2="118.69" y2="121.02" gradientTransform="matrix(1, 0, 0, 1, 0, 0)" xlink:href="#linear-gradient"/><linearGradient id="linear-gradient-22" x1="241.59" y1="123.26" x2="118.7" y2="120.46" gradientTransform="matrix(1, 0, 0, 1, 0, 0)" xlink:href="#linear-gradient"/><linearGradient id="linear-gradient-23" x1="241.6" y1="122.85" x2="118.71" y2="120.05" gradientTransform="matrix(1, 0, 0, 1, 0, 0)" xlink:href="#linear-gradient"/><linearGradient id="linear-gradient-24" x1="78.35" y1="146.12" x2="144" y2="296.47" gradientTransform="matrix(1, 0, 0, 1, 0, 0)" xlink:href="#linear-gradient"/><linearGradient id="linear-gradient-25" x1="95.68" y1="138.55" x2="161.32" y2="288.9" gradientTransform="matrix(1, 0, 0, 1, 0, 0)" xlink:href="#linear-gradient"/><linearGradient id="linear-gradient-26" x1="117.85" y1="128.87" x2="183.5" y2="279.22" gradientTransform="matrix(1, 0, 0, 1, 0, 0)" xlink:href="#linear-gradient"/><linearGradient id="linear-gradient-27" x1="143.03" y1="117.88" x2="208.68" y2="268.23" gradientTransform="matrix(1, 0, 0, 1, 0, 0)" xlink:href="#linear-gradient"/><linearGradient id="linear-gradient-28" x1="159.88" y1="110.52" x2="225.53" y2="260.87" gradientTransform="matrix(1, 0, 0, 1, 0, 0)" xlink:href="#linear-gradient"/><linearGradient id="linear-gradient-29" x1="173.53" y1="104.56" x2="239.18" y2="254.91" gradientTransform="matrix(1, 0, 0, 1, 0, 0)" xlink:href="#linear-gradient"/><linearGradient id="linear-gradient-30" x1="197.61" y1="94.05" x2="263.25" y2="244.4" gradientTransform="matrix(1, 0, 0, 1, 0, 0)" xlink:href="#linear-gradient"/><linearGradient id="linear-gradient-31" x1="215.66" y1="86.17" x2="281.31" y2="236.52" gradientTransform="matrix(1, 0, 0, 1, 0, 0)" xlink:href="#linear-gradient"/><linearGradient id="linear-gradient-32" x1="231.7" y1="79.16" x2="297.35" y2="229.51" gradientTransform="matrix(1, 0, 0, 1, 0, 0)" xlink:href="#linear-gradient"/><linearGradient id="linear-gradient-33" x1="257.94" y1="67.7" x2="323.59" y2="218.06" gradientTransform="matrix(1, 0, 0, 1, 0, 0)" xlink:href="#linear-gradient"/></defs><title>premium assets</title><g id="qualityAsset_1" data-name="qualityAsset 1"><g id="Layer_2" data-name="Layer 2"><g id="Layer_1-2" data-name="Layer 1"><path id="Path_891" data-name="Path 891" class="cls-1" d="M99.88,295.49A407.67,407.67,0,0,0,26.7,334.91,252.66,252.66,0,0,1,29.24,306,233.55,233.55,0,0,0,0,299.41a323.5,323.5,0,0,1,84.84-45.77Z"/><path id="Path_892" data-name="Path 892" class="cls-2" d="M288.68,295.49a409,409,0,0,1,73.19,39.42A255,255,0,0,0,359.31,306a234.11,234.11,0,0,1,29.25-6.57,323.6,323.6,0,0,0-84.83-45.77Z"/><path id="Path_893" data-name="Path 893" class="cls-3" d="M83.85,255.77l12.38,34.47,1.55,4.38a409.24,409.24,0,0,0-69.29,37.23,240.28,240.28,0,0,1,2.39-25.54l.2-1.42-1.38-.4a234.08,234.08,0,0,0-25.63-6,321.68,321.68,0,0,1,79.78-42.7m1-2.19A323.36,323.36,0,0,0,0,299.44,230.45,230.45,0,0,1,29.24,306a250.25,250.25,0,0,0-2.54,29.06,407.33,407.33,0,0,1,73.18-39.42l-15-41.83Z"/><path id="Path_894" data-name="Path 894" class="cls-4" d="M304.71,255.77a320.68,320.68,0,0,1,79.78,42.7,234.44,234.44,0,0,0-25.62,6l-1.38.4.2,1.42a239.85,239.85,0,0,1,2.39,25.53,409.29,409.29,0,0,0-69.3-37.22L298.16,274l6.57-18.22m-1-2.19L288.7,295.41a407.42,407.42,0,0,1,73.19,39.42,252.29,252.29,0,0,0-2.56-28.93,232.1,232.1,0,0,1,29.26-6.57,323.52,323.52,0,0,0-84.84-45.77Z"/><path id="Path_895" data-name="Path 895" class="cls-5" d="M99.93,295.65a216.7,216.7,0,0,0-52.56-5.59L26,251.06a253.32,253.32,0,0,1,58.8,2.74Z"/><path id="Path_896" data-name="Path 896" class="cls-6" d="M288.64,295.65a216.6,216.6,0,0,1,52.56-5.59l21.35-39a253.3,253.3,0,0,0-58.8,2.74Z"/><path id="Path_897" data-name="Path 897" class="cls-7" d="M335.17,257.56a24.08,24.08,0,0,1-16.53,21.77,38.11,38.11,0,0,0-22.4,20.7,24.09,24.09,0,0,1-23,14.78,38,38,0,0,0-28.12,11.8,24.22,24.22,0,0,1-26.68,6.05A38,38,0,0,0,188,334.12a24.21,24.21,0,0,1-27.13-3.43,38,38,0,0,0-29.13-9.05,24.09,24.09,0,0,1-24.31-12.5A38.09,38.09,0,0,0,83.22,290.7a24.1,24.1,0,0,1-18.57-20.06A38.06,38.06,0,0,0,48.18,245a24.24,24.24,0,0,1-10.6-25.21,38,38,0,0,0-6.72-29.74,24.22,24.22,0,0,1-1.34-27.31,38,38,0,0,0,3.81-30.24,24.11,24.11,0,0,1,8.1-26.13,38.06,38.06,0,0,0,14-27.11A24.09,24.09,0,0,1,71.92,57.49a38.11,38.11,0,0,0,22.4-20.7,24.1,24.1,0,0,1,23-14.89,38,38,0,0,0,28.1-11.69,24.09,24.09,0,0,1,26.67-6.05A38.1,38.1,0,0,0,202.53,2.7a24.07,24.07,0,0,1,27.13,3.44,38.1,38.1,0,0,0,29.13,9,24.08,24.08,0,0,1,24.3,12.5,38,38,0,0,0,24.27,18.46A24.08,24.08,0,0,1,325.93,66.2a38.06,38.06,0,0,0,16.49,25.64A24.1,24.1,0,0,1,353,117.05a38,38,0,0,0,6.72,29.67A24.2,24.2,0,0,1,361.08,174a38,38,0,0,0-3.85,30.25,24.1,24.1,0,0,1-8.1,26.1,38.15,38.15,0,0,0-13.95,27.17Z"/><path id="Path_898" data-name="Path 898" class="cls-8" d="M333.38,256.42a23.85,23.85,0,0,1-16.32,21.49,37.59,37.59,0,0,0-22.12,20.45A23.89,23.89,0,0,1,272.26,313a37.43,37.43,0,0,0-27.75,11.63,23.92,23.92,0,0,1-26.28,6A37.42,37.42,0,0,0,188.16,332a23.88,23.88,0,0,1-26.78-3.39,37.53,37.53,0,0,0-28.8-8.89,23.89,23.89,0,0,1-24.09-12.33,37.43,37.43,0,0,0-23.87-18.33,23.94,23.94,0,0,1-18.33-19.71A37.51,37.51,0,0,0,50,244.05a23.83,23.83,0,0,1-10.44-24.88A37.7,37.7,0,0,0,33,189.81a23.85,23.85,0,0,1-1.3-27A37.64,37.64,0,0,0,35.5,133a23.82,23.82,0,0,1,8-25.78A37.69,37.69,0,0,0,57.27,80.44,23.88,23.88,0,0,1,73.58,59,37.63,37.63,0,0,0,95.7,38.52a23.91,23.91,0,0,1,22.56-14.65,37.55,37.55,0,0,0,27.79-11.65,23.9,23.9,0,0,1,26.28-6A37.54,37.54,0,0,0,202.4,4.8a23.93,23.93,0,0,1,26.78,3.41,37.54,37.54,0,0,0,28.73,8.92A23.86,23.86,0,0,1,282,29.48,37.62,37.62,0,0,0,306,47.7a23.9,23.9,0,0,1,18.33,19.71,37.56,37.56,0,0,0,16.27,25.3A23.87,23.87,0,0,1,351,117.61,37.56,37.56,0,0,0,357.6,147a23.86,23.86,0,0,1,1.29,27,37.69,37.69,0,0,0-3.79,29.87,23.83,23.83,0,0,1-8,25.78,37.56,37.56,0,0,0-13.73,26.87Z"/><path id="Path_899" data-name="Path 899" class="cls-9" d="M337,168.41A141.67,141.67,0,1,1,195.31,26.74,141.66,141.66,0,0,1,337,168.41Z"/><path id="Path_900" data-name="Path 900" class="cls-10" d="M334.14,168.41A138.87,138.87,0,1,1,195.28,29.55h0A138.86,138.86,0,0,1,334.14,168.41Z"/><circle id="Ellipse_33" data-name="Ellipse 33" class="cls-11" cx="195.28" cy="168.41" r="123.21"/><path id="Path_901" data-name="Path 901" class="cls-12" d="M103.72,272.78c1.29-2.69,2.58-5.38,3.92-8A364.92,364.92,0,0,1,296.41,73.32,138.82,138.82,0,0,0,94.58,264q4.35,4.61,9.11,8.8Z"/><path id="Path_902" data-name="Path 902" class="cls-13" d="M341.13,290c-98.55-47.43-195.08-47.43-293.7,0L26.08,251c111.68-54.75,224.77-54.75,336.4,0Z"/><path id="Path_903" data-name="Path 903" class="cls-14" d="M194.29,210v1.64c55.28,0,111.1,13.51,165.91,40.14L342,285.07l-1.53,2.8c-48.84-23.26-98-35-146.14-35s-97.3,11.8-146.15,35l-9.84-18-9.83-18.06c54.75-26.63,110.61-40.14,165.89-40.14v-1.65m0,0c-56.17,0-112.39,13.69-168.19,41.05l21.35,39c49.32-23.72,98.09-35.59,146.86-35.57s97.52,11.85,146.84,35.57l21.35-39Q278.77,210,194.27,210Z"/><path id="Path_918" data-name="Path 918" class="cls-15" d="M164.36,284.74l5.36-3.2,5.39,3.18-1.38-6.09,4.71-4.14-6.24-.59-2.48-5.74-2.47,5.74-6.24.59,4.7,4.14Z"/><path id="Path_919" data-name="Path 919" class="cls-16" d="M189.41,284.17l6.53-3.85,6.52,3.85-1.66-7.4,5.71-5-7.57-.7-3-7-3,7-7.56.73,5.72,5Z"/><path id="Path_920" data-name="Path 920" class="cls-17" d="M217.16,284.74l5.38-3.2,5.37,3.18-1.36-6.09,4.69-4.14L225,273.9l-2.5-5.74L220,273.9l-6.22.59,4.69,4.14Z"/><rect id="Rectangle_67" data-name="Rectangle 67" class="cls-18" x="172.48" y="93.32" width="50.46" height="1.45"/><rect id="Rectangle_68" data-name="Rectangle 68" class="cls-19" x="172.48" y="85.52" width="50.46" height="1.47"/><rect id="Rectangle_69" data-name="Rectangle 69" class="cls-20" x="172.48" y="77.7" width="50.46" height="1.47"/><path id="Path_922" data-name="Path 922" d="M116.66,250.51a22,22,0,0,1-6.57,2.56,12,12,0,0,1-9-1,11.43,11.43,0,0,1-5.06-7.36c-1.53-6.57,2.19-12.46,10-14.1a15.17,15.17,0,0,1,6-.17c-.11,1-.15,1.49-.26,2.47a12.65,12.65,0,0,0-5.34,0c-5.68,1.19-8.61,5.37-7.34,10.84a8.44,8.44,0,0,0,9.54,7.16,7,7,0,0,0,1.1-.24,10.29,10.29,0,0,0,3.75-1.38l-1.32-6.57-4.62,1-.48-2.19c3-.64,4.51-1,7.53-1.51C115.43,244.16,115.85,246.26,116.66,250.51Z"/><path id="Path_923" data-name="Path 923" d="M120.25,228.07c.92,5.23,1.38,7.86,2.19,13.14s3.46,6.57,6.46,6.17c3.33-.52,5.15-3,4.38-7.9-.77-5.26-1.16-7.89-1.93-13.14l3.09-.44c.72,5.17,1.1,7.77,1.82,12.94.94,6.81-2.19,10.12-7.14,10.95s-8.48-1.2-9.72-8l-2.35-13Z"/><path id="Path_924" data-name="Path 924" d="M144.32,240.07c-.62,2.91-.9,4.38-1.49,7.27l-3,.39c1.86-9.28,2.87-13.93,5.08-23.21l3.68-.42c4.18,8.59,6.22,12.9,10,21.55l-3.15.28c-1.23-2.71-1.86-4.07-3.13-6.76C149.18,239.47,147.56,239.67,144.32,240.07Zm7.27-3.09c-1.16-2.48-1.75-3.72-3-6.18-.68-1.4-1.16-2.69-1.64-3.94h0c-.2,1.36-.44,2.76-.72,4.18-.62,2.67-.92,4-1.51,6.7C147.43,237.42,148.92,237.26,151.59,237Z"/><path id="Path_925" data-name="Path 925" d="M160.17,223.38a34,34,0,0,1,5.85-.9,10.05,10.05,0,0,1,7,1.44,5.5,5.5,0,0,1,2.05,4.16A6,6,0,0,1,171,234h0a5.58,5.58,0,0,1,3.61,4.38,36.09,36.09,0,0,0,2,6.07l-3,.13a30,30,0,0,1-1.8-5.26c-.86-3-2.19-4.16-4.87-4.07l-2.8.17c.29,3.88.42,5.83.7,9.68l-2.91.24Zm3.81,9.94,3.05-.2c3.22-.22,5.14-2,5-4.55s-2.45-4.06-5.65-3.88a12.28,12.28,0,0,0-3,.48c.22,3.22.35,4.78.59,8.1Z"/><path id="Path_926" data-name="Path 926" d="M183.52,237.2c-.88,2.84-1.29,4.25-2.19,7.1h-3c2.71-9.07,4.16-13.6,7.22-22.63h3.7c3.35,8.94,5,13.43,8,22.4h-3.06c-1-2.8-1.47-4.22-2.48-7C188.34,237.09,186.79,237.11,183.52,237.2Zm7.53-2.39c-.94-2.58-1.4-3.85-2.36-6.44-.53-1.44-.9-2.78-1.27-4.07h0c-.33,1.33-.68,2.71-1.12,4.1-.85,2.6-1.29,3.9-2.19,6.57,2.76-.11,4.23-.13,6.94-.15Z"/><path id="Path_927" data-name="Path 927" d="M200.53,244.14l.33-22.4h3.38c2.93,4.6,4.37,6.92,7.16,11.58a56.07,56.07,0,0,1,3.79,7.45h0c-.14-3,0-5.74,0-9.22s.28-5.61.46-9.37l2.91.15c-.53,9-.77,13.45-1.27,22.38l-2.67-.11c-2.63-4.69-4-7-6.81-11.65a79.86,79.86,0,0,1-4.14-7.6h0c0,2.85.13,5.54,0,9.26l-.22,9.57Z"/><path id="Path_928" data-name="Path 928" d="M228.39,225.57c-2.87-.22-4.38-.33-7.18-.5a12.71,12.71,0,0,1,.15-2.46c7,.44,10.56.73,17.52,1.47a17.88,17.88,0,0,1-.26,2.43c-2.87-.28-4.38-.44-7.2-.68-.68,7.95-1,11.94-1.73,19.87l-2.94-.24C227.45,237.44,227.76,233.45,228.39,225.57Z"/><path id="Path_929" data-name="Path 929" d="M252.17,237.59c-3.57-.48-5.36-.72-8.95-1.14-.38,3.22-.57,4.82-.95,8,3.92.46,5.87.72,9.79,1.27-.13,1-.2,1.44-.35,2.41-5-.73-7.55-1-12.61-1.6,1-8.9,1.47-13.36,2.45-22.28,5.13.57,7.69.9,12.79,1.6-.13,1-.2,1.45-.35,2.41-3.85-.54-5.78-.79-9.66-1.25-.32,2.83-.5,4.23-.83,7.06,3.61.41,5.41.63,9,1.14Z"/><path id="Path_930" data-name="Path 930" d="M268.88,240.26c-3.55-.63-5.34-.94-8.91-1.51l-1.25,8c3.9.61,5.85.94,9.72,1.64l-.43,2.38c-5-.9-7.54-1.33-12.57-2.19,1.33-8.76,2-13.29,3.35-22.16,5.1.77,7.64,1.19,12.74,2.19L271.1,231c-3.86-.7-5.79-1-9.64-1.64-.44,2.8-.66,4.2-1.12,7,3.59.57,5.39.88,9,1.54C269.15,238.86,269.06,239.32,268.88,240.26Z"/><path id="Path_931" data-name="Path 931" d="M275.94,229.77a41.56,41.56,0,0,1,6.57.83,14,14,0,0,1,8.76,4.8,10,10,0,0,1,1.38,8.61,12,12,0,0,1-5.24,7.71,14.71,14.71,0,0,1-10.53,1c-2.06-.44-3.74-.88-5.17-1.32Zm-.86,20a19.36,19.36,0,0,0,2.9.77c6.15,1.27,10.27-1.32,11.65-7.19,1.2-5.12-1.12-9.17-7.49-10.49a19,19,0,0,0-3.6-.44c-1.42,6.95-2.12,10.43-3.5,17.35Z"/><path class="cls-21" d="M176.24,131.38l-.58,0q-12.48,0-12.83,0a3.34,3.34,0,0,1-.61,0c-.07,0-.1-.08-.1-.17a10.76,10.76,0,0,1,.68-1.24q.64-1.09,2.59-4l3.55-5.27c1.09-1.6,1.83-2.67,2.23-3.22a19.36,19.36,0,0,0,2.14-3.32c-1.62-.07-2.87-.11-3.78-.11a10.69,10.69,0,0,0-3,.31,4.25,4.25,0,0,0-1.65.91,11.17,11.17,0,0,0-1.62,2c-.31.45-.52.68-.62.68s-.22-.08-.22-.25.2-.71.6-2,.63-2,.72-2.2.15-.27.23-.27l2,.14c.73,0,2.21,0,4.46,0q4.67,0,5.92-.16l.21,0c.11,0,.16.06.16.18,0,.28-1.68,2.81-5,7.62q-4.58,6.54-6.29,9.63,2,.09,3.36.09a19.51,19.51,0,0,0,3-.19,7.4,7.4,0,0,0,2-.61,6.5,6.5,0,0,0,1.31-.8,13.86,13.86,0,0,0,1.38-1.55c.57-.7.91-1,1-1s.22.1.22.31Z"/><path class="cls-22" d="M194.17,113.71A37.4,37.4,0,0,1,195,118c0,.08-.09.11-.14.11a.29.29,0,0,1-.21-.11,11.46,11.46,0,0,0-1.8-2.31,5.82,5.82,0,0,0-1.73-1.13,9.44,9.44,0,0,0-3-.33,16.54,16.54,0,0,0-3.16.23.86.86,0,0,0-.11.5,3.45,3.45,0,0,1,0,.35c-.09.72-.13,2.7-.13,5.92,0,.14,0,.33,0,.58l1.43,0a4.59,4.59,0,0,0,2.5-.52,4.31,4.31,0,0,0,1.35-2.22c.06-.19.15-.29.27-.29s.26.14.26.4l-.06.55c-.07.72-.11,1.47-.11,2.23,0,1.25,0,2.37.07,3.36,0,.31-.08.47-.25.47s-.21-.11-.25-.33a3.63,3.63,0,0,0-1.21-2.33c-.61-.47-1.94-.71-4-.71,0,.67,0,1.75,0,3.23a18.83,18.83,0,0,0,.21,3.67,2,2,0,0,0,1,1.24,5.65,5.65,0,0,0,2.65.46c3.55,0,5.84-1.23,6.87-3.67q.19-.45.39-.45c.15,0,.22.1.22.3a.91.91,0,0,1-.07.35c-.05.18-.19.82-.4,1.95,0,.23-.22,1-.52,2.13h-5.73c-.82,0-2,0-3.62-.11s-3-.1-4.23-.1a11.13,11.13,0,0,1-1.92-.08.22.22,0,0,1-.08-.15q0-.27.45-.27a2.14,2.14,0,0,0,2-.81,9.62,9.62,0,0,0,.48-3.92l0-2.81.05-2.62q0-.8-.09-3a24.47,24.47,0,0,0-.17-2.52,1.29,1.29,0,0,0-.42-.63,4.38,4.38,0,0,0-1.54-.62q-.36-.09-.36-.3c0-.16.16-.25.48-.25l2.79.15q1.48.07,7.27.07C192.82,113.69,194.12,113.7,194.17,113.71Z"/><path class="cls-23" d="M208.31,122.28A7.18,7.18,0,0,1,211,124a6.26,6.26,0,0,1,1.1,2.77,6.72,6.72,0,0,0,1.27,3.31,3,3,0,0,0,2.14.91c.25,0,.37.1.37.26s-.14.24-.42.24a23.4,23.4,0,0,1-4.65-.25c-.54-.17-.94-1.1-1.21-2.8a20.67,20.67,0,0,0-.77-3.62,3.47,3.47,0,0,0-1.29-1.75,5,5,0,0,0-2.75-.61,10,10,0,0,0-1.62.15c0,.58-.07,1.17-.07,1.79,0,2.34,0,3.86.1,4.54a1.9,1.9,0,0,0,2.2,2c.33,0,.49.08.49.23s-.2.27-.6.27h-6.77c-.39,0-.59-.09-.59-.27s.16-.23.47-.23a2.42,2.42,0,0,0,1.44-.32,2.07,2.07,0,0,0,.64-1,8.51,8.51,0,0,0,.23-2.4l0-2.78,0-4.26a38.31,38.31,0,0,0-.15-4.3,2.53,2.53,0,0,0-.51-1.42,3.41,3.41,0,0,0-1.71-.56c-.19,0-.29-.11-.29-.24s.19-.22.58-.22l8.1-.17c2.23,0,3.85.42,4.86,1.28a4,4,0,0,1,1.51,3.15,3.9,3.9,0,0,1-.61,2.14,3.8,3.8,0,0,1-1.44,1.41A17.68,17.68,0,0,1,208.31,122.28Zm-5.19-.35a20.25,20.25,0,0,0,3.94-.37,4.21,4.21,0,0,0,2.24-1.38,3.77,3.77,0,0,0,.92-2.53,4,4,0,0,0-1-2.7,4.24,4.24,0,0,0-3.29-1.15,12.64,12.64,0,0,0-2.72.33q-.16,3.77-.16,6C203,120.63,203.06,121.24,203.12,121.93Z"/><path class="cls-24" d="M216,122.38a9.08,9.08,0,0,1,1.12-4.06,9.53,9.53,0,0,1,3.28-3.64,8.54,8.54,0,0,1,4.86-1.44,8.09,8.09,0,0,1,6.26,2.71,8.92,8.92,0,0,1,2.47,6.18,9.43,9.43,0,0,1-2.74,6.63,8.65,8.65,0,0,1-6.58,2.94,8.26,8.26,0,0,1-6.17-2.57A9.28,9.28,0,0,1,216,122.38Zm3.05-.44a16.62,16.62,0,0,0,.68,4.58,6.19,6.19,0,0,0,2.15,3.41A5.27,5.27,0,0,0,225,131a4.9,4.9,0,0,0,4.31-2.63,11.29,11.29,0,0,0,1.62-6.07,10.5,10.5,0,0,0-1.65-5.87A5,5,0,0,0,225,113.9a4.52,4.52,0,0,0-3.35,1.35,8.09,8.09,0,0,0-1.95,3.22A10.94,10.94,0,0,0,219.06,121.94Z"/><path class="cls-25" d="M79.57,146.94H89.79C96,146.94,100,151,100,157.22v5c0,6.22-4,10.28-10.22,10.28h-3.7V190H79.57Zm9.91,19.45a3.66,3.66,0,0,0,4-4v-5.3a3.66,3.66,0,0,0-4-4H86.09v13.3Z"/><path class="cls-26" d="M105.48,146.94H112v36.93h11.63V190H105.48Z"/><path class="cls-27" d="M142.17,180.48h-7L133.73,190h-6.52l7.14-43.09h8.74L150.23,190h-6.65Zm-.87-6.27-2.64-18-2.65,18Z"/><path class="cls-28" d="M169.06,160.36v-3.64c0-2.7-1.53-4.24-3.94-4.24s-3.93,1.54-3.93,4.24v23.52c0,2.71,1.53,4.25,3.93,4.25s3.94-1.54,3.94-4.25v-7.63h-3.94v-6.16h10.47v13.79c0,6.22-4.19,10.4-10.47,10.4s-10.46-4.18-10.46-10.4V156.72c0-6.21,4.19-10.4,10.46-10.4s10.47,4.19,10.47,10.4v3.64Z"/><path class="cls-29" d="M181.93,146.94h6.52V190h-6.52Z"/><path class="cls-30" d="M208.45,180.48h-7L200,190H193.5l7.14-43.09h8.74L216.52,190h-6.65Zm-.86-6.27-2.64-18-2.65,18Z"/><path class="cls-31" d="M236.21,190l-4.74-17.79h-3.38V190h-6.53V146.94h10.22C238,146.94,242,151,242,157.22V162c0,4-1.66,7.08-4.49,8.8L243,190Zm-8.12-23.95h3.38a3.66,3.66,0,0,0,4-4v-5a3.66,3.66,0,0,0-4-4h-3.38Z"/><path class="cls-32" d="M248.34,146.94h6.52V190h-6.52Z"/><path class="cls-33" d="M260.52,180.05v-1.54l6.28-.67v1.6c0,3.14,1.6,5.05,4.19,5.05a3.87,3.87,0,0,0,4.18-4.13c0-2.71-1.1-4.68-6-9.29-6.46-6.1-8.31-9.42-8.31-14.16,0-6.4,3.7-10.59,9.91-10.59s9.91,4.19,9.91,10.65v1.11l-6.28.68v-1.24c0-3.32-1.29-5-3.57-5s-3.57,1.41-3.57,4.12,1.36,4.68,6,9.3c6.27,6.27,8.31,9.41,8.31,14.15,0,6.16-4.31,10.59-10.53,10.59S260.52,186.21,260.52,180.05Z"/><path class="cls-34" d="M316.78,146.94V190h-6.52V160.48L304.16,190h-4.55l-6.1-29.55V190h-6.4V146.94h9.23L302,174.45l5.41-27.51Z"/></g></g></g></svg>