<svg width="220" height="48" viewBox="0 0 220 48" fill="none" xmlns="http://www.w3.org/2000/svg">
<path d="M211.139 24.0001C211.139 36.8239 200.744 47.2197 187.92 47.2197C175.096 47.2197 164.7 36.8239 164.7 24.0001C164.7 11.1763 175.096 0.780518 187.92 0.780518C200.744 0.780518 211.139 11.1763 211.139 24.0001Z" fill="url(#paint0_linear)"/>
<path d="M16.1963 7.1521C17.4857 7.1521 18.5378 7.59069 19.3526 8.46787C19.7165 8.91042 19.8984 9.36086 19.8984 9.81921V9.9496C19.8984 10.8979 19.2418 12.107 17.9287 13.5769C17.1297 14.3908 16.5088 14.9717 16.0658 15.3194C15.1086 16.078 14.3373 16.6431 13.7519 17.0145C13.7361 17.0224 13.7005 17.0303 13.6451 17.0382C13.3762 17.0382 13.1033 16.8525 12.8264 16.4811C12.7789 16.3625 12.7552 16.2835 12.7552 16.244C12.7552 16.1333 12.8699 16.0188 13.0993 15.9002C13.8666 15.3866 14.6814 14.7662 15.5437 14.0392C16.2002 13.4623 16.6986 12.9605 17.0388 12.5337C17.4264 12.0596 17.7151 11.6526 17.905 11.3128C18.253 10.7043 18.4468 10.1827 18.4864 9.74809C18.344 9.66116 18.1027 9.61769 17.7626 9.61769C16.5681 9.61769 14.9385 10.2262 12.8739 11.4432C12.2252 11.8383 11.5647 12.3006 10.8923 12.8301C10.5126 13.0909 9.8481 13.6875 8.89884 14.62C7.97331 15.6078 7.36815 16.3783 7.08338 16.9315C6.48218 17.9114 6.18158 18.7886 6.18158 19.5631C6.18158 20.0846 6.37539 20.5193 6.763 20.867C7.12688 21.2147 7.54219 21.5189 8.00891 21.7797C9.5119 22.6648 10.5521 23.3089 11.1296 23.7119C12.4507 24.6918 13.1112 25.7033 13.1112 26.7465V26.865C13.1112 27.8844 12.1421 28.8525 10.2041 29.7692C9.42093 30.1564 8.30159 30.5318 6.84606 30.8953C5.65948 31.1403 4.66276 31.2628 3.85589 31.2628C2.8117 31.2628 1.97714 31.0376 1.35221 30.5871C0.450411 29.9154 -0.000488281 29.2634 -0.000488281 28.6312C-0.000488281 27.9674 0.406903 27.3905 1.22169 26.9006C1.31661 26.8532 1.40758 26.8255 1.4946 26.8176C1.6449 26.8176 1.85057 26.9322 2.11162 27.1614C2.25401 27.3273 2.32916 27.4656 2.33707 27.5762V27.6592C2.33707 27.7303 2.21446 27.8252 1.96923 27.9437C1.62117 28.1808 1.39176 28.4139 1.28101 28.6431H1.29288C1.53811 28.7458 1.84266 28.7972 2.20654 28.7972C3.69372 28.7972 5.46963 28.4021 7.53428 27.6118C8.31742 27.2878 8.99376 26.9243 9.56332 26.5212C10.0933 26.0866 10.3583 25.7073 10.3583 25.3833C10.3583 25.2726 10.0933 25.0474 9.56332 24.7076C8.20271 23.9253 7.11897 23.2417 6.3121 22.6569C4.38985 21.1633 3.42872 19.6223 3.42872 18.0339C3.42872 16.3586 4.47291 14.4462 6.56128 12.2967C7.48681 11.4037 8.23435 10.7517 8.80391 10.3408C9.28645 9.96936 9.80064 9.61374 10.3465 9.27393C10.9951 8.8709 11.6121 8.52714 12.1975 8.24265C13.7717 7.51562 15.1046 7.1521 16.1963 7.1521Z" fill="#232E45"/>
<path d="M21.2338 13.9562C22.0724 13.9562 22.7962 14.1735 23.4053 14.6082C23.9274 15.0191 24.2438 15.434 24.3545 15.8528C24.4811 15.6394 24.754 15.1139 25.1733 14.2762C25.2682 14.0629 25.4462 13.9562 25.7072 13.9562C26.2135 13.9562 26.7791 14.2683 27.404 14.8926C27.7363 15.3115 27.9024 15.6513 27.9024 15.9121C27.9024 16.0622 27.7917 16.3309 27.5702 16.7181C27.3724 17.1054 26.1186 19.5631 23.8087 24.0912C23.5714 24.5812 23.3657 25.0672 23.1917 25.5492H23.2154C23.785 25.1778 24.5563 24.5535 25.5293 23.6763C27.165 22.1313 28.1184 20.3052 29.2359 18.3605L29.2755 20.8245C29.4891 20.8245 27.6611 22.2855 27.9143 22.5858C28.0092 22.7122 28.0567 22.8347 28.0567 22.9532C28.0567 23.0086 27.9103 23.1785 27.6176 23.463C26.7 24.3955 26.0513 25.0079 25.6716 25.3003C24.1054 26.6437 22.8634 27.3155 21.9458 27.3155C21.1706 27.3155 20.601 26.8492 20.2371 25.9167C20.1738 25.7191 20.1422 25.5018 20.1422 25.2647V25.2055H20.1303C19.4738 25.7428 18.9161 26.1538 18.4573 26.4383C17.6108 26.9994 16.9108 27.2799 16.357 27.2799C15.6767 27.2799 15.0716 27.0073 14.5416 26.462C14.0274 25.8693 13.7703 25.1185 13.7703 24.2098V24.1386C13.7703 24.107 13.7663 24.0794 13.7584 24.0557C13.7663 24.024 13.7703 23.9924 13.7703 23.9608C13.7703 22.7438 14.2054 21.1831 15.0755 19.2786C15.4869 18.4251 16.0406 17.536 16.7367 16.6115C18.1369 14.8413 19.6359 13.9562 21.2338 13.9562ZM16.4994 25.5374C16.4994 25.6954 16.5192 25.8495 16.5587 25.9997C17.1204 25.8337 18.0459 25.2173 19.3353 24.1505C19.8653 23.7079 20.3874 23.2338 20.9016 22.728C21.1785 22.0958 21.9458 20.5706 23.2036 18.1524C23.2036 18.1445 23.4646 17.6269 23.9867 16.5996C23.9788 16.5996 23.9748 16.5956 23.9748 16.5877C23.9748 16.5877 23.9234 16.5917 23.8206 16.5996C23.7098 16.5996 23.4725 16.5482 23.1086 16.4455C23.0216 16.4297 22.9227 16.4218 22.812 16.4218H22.7408C21.8627 16.4218 20.8462 17.0303 19.6913 18.2473C19.3591 18.6345 19.0505 19.0336 18.7658 19.4445C18.299 20.1399 17.8956 20.8591 17.5555 21.6019C17.247 22.3052 17.0136 22.9453 16.8554 23.5222C16.6181 24.3757 16.4994 25.0474 16.4994 25.5374Z" fill="#232E45"/>
<path d="M38.4548 20.6062C37.1574 23.1271 36.4059 24.6523 36.2003 25.1818C35.9471 25.8377 35.8166 26.2763 35.8087 26.4975C36.046 26.8374 36.1647 27.1297 36.1647 27.3747V27.4577C36.1647 27.6395 36.05 27.7738 35.8206 27.8607C35.7968 27.8765 35.7256 27.8884 35.607 27.8963C35.1482 27.8963 34.5588 27.6078 33.839 27.031C33.3011 26.4936 33.0321 25.9048 33.0321 25.2647C33.0321 24.3639 33.6293 22.811 34.8238 20.6062C35.9471 18.4093 36.6512 17.0145 36.9359 16.4218L37.0071 16.1373C36.3506 16.3507 35.4211 16.9315 34.2187 17.8798C33.8073 18.2196 33.2576 18.7451 32.5693 19.4564C32.1659 19.8752 31.9602 20.1162 31.9523 20.1795C29.6108 24.7708 28.3372 27.2641 28.1315 27.6592C28.0208 27.7857 27.8665 27.8489 27.6688 27.8489C27.1862 27.8489 26.6404 27.5565 26.0313 26.9717C25.6595 26.545 25.4736 26.1775 25.4736 25.8693V25.8456C25.4736 25.7428 25.6002 25.4584 25.8533 24.9921C29.3339 18.1643 31.1771 14.5568 31.3828 14.1696C31.4856 14.0273 31.6399 13.9562 31.8455 13.9562C32.2094 13.9562 32.6326 14.134 33.1152 14.4896C33.392 14.7188 33.6056 14.944 33.7559 15.1653C33.9458 15.4735 34.0407 15.7145 34.0407 15.8884V15.9476C34.0407 16.0741 33.9616 16.2716 33.8034 16.5403H33.8152C35.3182 15.4419 36.485 14.8926 37.3156 14.8926C38.1858 14.8926 38.9017 15.3154 39.4634 16.161C39.7007 16.6035 39.8193 16.9473 39.8193 17.1923C39.8114 17.3029 39.7916 17.4333 39.76 17.5835C40.2188 17.2041 40.6658 16.8841 41.1008 16.6233C42.1055 16.0227 42.9084 15.7224 43.5096 15.7224C44.3165 15.7224 44.9928 16.0899 45.5386 16.8248C45.863 17.3227 46.0251 17.7652 46.0251 18.1524C46.0251 18.6187 45.8274 19.2035 45.4318 19.9068C44.0159 22.7043 43.209 24.3283 43.0112 24.7787C42.8451 25.1502 42.7343 25.4505 42.679 25.6796C45.2567 24.0093 46.5709 21.992 47.607 19.4327C47.0174 21.1571 46.5385 21.5937 47.4134 22.8229C47.4688 22.9256 47.4965 23.0046 47.4965 23.0599V23.1073C47.4965 23.1706 47.3739 23.3207 47.1286 23.5578C46.4483 24.2611 45.8709 24.8143 45.3962 25.2173C43.7904 26.6082 42.6355 27.3036 41.9314 27.3036H41.8958C41.3105 27.3036 40.7488 26.9559 40.2109 26.2605C39.9261 25.8495 39.7837 25.4346 39.7837 25.0158V24.8617C39.7837 24.1268 40.286 22.807 41.2907 20.9025C42.2241 19.0691 42.8372 17.8482 43.1299 17.2397L43.1892 16.9789C43.1813 16.9789 43.1773 16.975 43.1773 16.9671C42.7027 17.133 42.0422 17.5123 41.1958 18.105C40.7369 18.429 40.1476 18.9308 39.4278 19.6105C39.0164 20.0135 38.6921 20.3454 38.4548 20.6062Z" fill="#232E45"/>
<path d="M53.7416 13.6954C54.4772 13.6954 55.1892 13.9957 55.8774 14.5963C56.3362 15.0705 56.5656 15.4972 56.5656 15.8765V15.9832C56.5656 16.6628 55.9051 17.7099 54.584 19.1245C53.6743 20.0254 52.9228 20.701 52.3295 21.1515C51.6888 21.6572 51.0718 22.0879 50.4785 22.4435C50.2728 22.5542 50.0157 22.6846 49.7072 22.8347C49.4857 23.625 49.375 24.3204 49.375 24.921C49.375 25.3003 49.4303 25.6954 49.5411 26.1064C49.9841 26.1064 50.6921 25.7942 51.665 25.1699C52.1397 24.8696 52.7765 24.3639 53.5754 23.6526C53.8365 23.4235 54.3428 22.9256 55.0942 22.159L55.1536 22.1472H55.2485C55.4779 22.1472 55.7113 22.3171 55.9486 22.6569C56.0514 22.7912 56.1028 22.8861 56.1028 22.9414C56.1028 23.0046 55.9763 23.1587 55.7231 23.4037C54.7581 24.3757 54.0342 25.0395 53.5517 25.3951C52.9426 25.8772 52.4126 26.2407 51.9617 26.4857C50.9096 27.031 50.1027 27.3036 49.5411 27.3036H49.3987C48.4652 27.3036 47.6821 26.703 47.0493 25.5018C46.7724 24.8854 46.634 24.2018 46.634 23.4511C46.634 22.2025 46.9583 20.863 47.607 19.4327C47.9946 18.6424 48.5088 17.7929 49.1495 16.8841C49.4422 16.4811 49.905 15.9595 50.5378 15.3194C51.7165 14.2367 52.7844 13.6954 53.7416 13.6954ZM50.5259 20.8788H50.5497C51.0718 20.5153 51.8153 19.9029 52.7804 19.0415C53.4924 18.354 53.9868 17.8403 54.2636 17.5005C54.7145 16.9473 55.0191 16.5087 55.1773 16.1847L55.1536 16.1729C54.6236 16.3151 54.0619 16.6233 53.4686 17.0975C53.0336 17.461 52.5866 17.9114 52.1278 18.4488C51.669 19.0336 51.2577 19.6223 50.8938 20.215C50.8068 20.3652 50.6841 20.5864 50.5259 20.8788Z" fill="#232E45"/>
<path d="M75.0698 7.1521C79.294 7.1521 82.213 8.44812 83.8267 11.0402C84.4516 12.0754 84.7641 13.1422 84.7641 14.2407V14.4778C84.7641 16.161 84.1234 18.0695 82.8419 20.2032C82.3989 20.9223 81.8135 21.7284 81.0857 22.6213C80.7614 23.0165 80.1444 23.6803 79.2347 24.6128C79.2188 24.6128 79.1041 24.7195 78.8905 24.9328C78.0441 25.6994 77.1937 26.3988 76.3394 27.031C75.0816 27.9081 74.0216 28.5522 73.1594 28.9631C70.6834 30.1959 68.3181 30.8123 66.0637 30.8123C59.5993 30.8123 54.6031 26.3496 54.6031 22.6569C54.6031 21.9336 55.7096 21.1701 56.1028 22.9414C56.6435 25.3767 60.7801 28.3942 63.2752 28.3942C62.7294 27.8805 62.4565 27.4419 62.4565 27.0784V27.0191C62.4565 26.8927 62.5632 26.6398 62.7768 26.2605C66.8507 18.271 68.9787 14.0984 69.1606 13.7428C70.0149 12.0675 70.5568 10.9809 70.7862 10.483C70.9049 10.3566 71.0631 10.2934 71.2609 10.2934H71.2727C71.7394 10.2934 72.2734 10.5779 72.8746 11.1468C73.0565 11.3602 73.1475 11.4708 73.1475 11.4787C73.3453 11.779 73.4442 12.028 73.4442 12.2255V12.2848C73.4442 12.4033 73.3374 12.6681 73.1238 13.079C72.7678 13.8219 71.0591 17.1804 67.9978 23.1548L65.3161 28.4297H65.328C65.5416 28.4297 66.1032 28.3349 67.0129 28.1452C68.0096 27.8765 68.8996 27.5723 69.6827 27.2325C70.7744 26.7504 71.9253 26.1143 73.1357 25.324C74.1086 24.6918 75.1607 23.866 76.2919 22.8466C77.2491 21.9378 77.8543 21.3214 78.1074 20.9974C78.9301 20.0412 79.5353 19.2549 79.9229 18.6385C81.3389 16.4574 82.0468 14.5963 82.0468 13.0553V12.8301C82.0468 12.3401 81.944 11.8423 81.7383 11.3365C81.4219 10.9493 81.1292 10.6727 80.8603 10.5067C79.4206 9.55843 77.4113 9.08427 74.8325 9.08427H74.8206C73.1594 9.08427 71.5615 9.3174 70.0268 9.78365C68.6267 10.2025 67.3807 10.6727 66.2891 11.1943C65.4268 11.6052 64.533 12.1307 63.6074 12.7708C61.7959 14.0747 60.5658 15.6592 59.9172 17.5242C59.6957 18.188 59.5849 18.7965 59.5849 19.3497C59.5849 19.65 59.6601 19.8436 59.8104 19.9305C60.0398 20.215 60.1545 20.4521 60.1545 20.6418V20.6892C60.1545 20.8788 60.02 20.9855 59.7511 21.0092C59.3872 21.0092 58.9481 20.7524 58.434 20.2387C57.9435 19.6697 57.6983 18.9546 57.6983 18.0932V18.0102C57.6983 16.888 58.1334 15.6197 59.0035 14.2051C60.3008 12.1821 62.4841 10.5028 65.5534 9.16725C68.7018 7.82382 71.8739 7.1521 75.0698 7.1521Z" fill="#232E45"/>
<path d="M91.4957 13.9562C92.3342 13.9562 93.058 14.1735 93.6671 14.6082C94.1892 15.0191 94.5056 15.434 94.6164 15.8528C94.7429 15.6394 95.0159 15.1139 95.4351 14.2762C95.53 14.0629 95.708 13.9562 95.9691 13.9562C96.4753 13.9562 97.0409 14.2683 97.6659 14.8926C97.9981 15.3115 98.1642 15.6513 98.1642 15.9121C98.1642 16.0622 98.0535 16.3309 97.832 16.7181C97.6342 17.1054 96.3804 19.5631 94.0705 24.0912C93.8332 24.5812 93.6276 25.0672 93.4535 25.5492H93.4773C96.2507 23.7406 97.6264 21.728 99.384 18.4969C98.3039 20.5567 98.3185 20.9713 98.3185 22.9532C98.3185 23.0086 98.1721 23.1785 97.8795 23.463C96.9618 24.3955 96.3132 25.0079 95.9335 25.3003C94.3672 26.6437 93.1252 27.3155 92.2076 27.3155C91.4324 27.3155 90.8628 26.8492 90.4989 25.9167C90.4357 25.7191 90.404 25.5018 90.404 25.2647V25.2055H90.3922C89.7356 25.7428 89.1779 26.1538 88.7191 26.4383C87.8727 26.9994 87.1726 27.2799 86.6188 27.2799C85.9385 27.2799 85.3334 27.0073 84.8034 26.462C84.2892 25.8693 84.0321 25.1185 84.0321 24.2098V24.1386C84.0321 24.107 84.0282 24.0794 84.0202 24.0557C84.0282 24.024 84.0321 23.9924 84.0321 23.9608C84.0321 22.7438 84.4672 21.1831 85.3373 19.2786C85.7487 18.4251 86.3024 17.536 86.9986 16.6115C88.3987 14.8413 89.8978 13.9562 91.4957 13.9562ZM86.7612 25.5374C86.7612 25.6954 86.781 25.8495 86.8206 25.9997C87.3822 25.8337 88.3077 25.2173 89.5972 24.1505C90.1272 23.7079 90.6493 23.2338 91.1634 22.728C91.4403 22.0958 92.2076 20.5706 93.4654 18.1524C93.4654 18.1445 93.7264 17.6269 94.2485 16.5996C94.2406 16.5996 94.2367 16.5956 94.2367 16.5877C94.2367 16.5877 94.1852 16.5917 94.0824 16.5996C93.9717 16.5996 93.7344 16.5482 93.3705 16.4455C93.2835 16.4297 93.1846 16.4218 93.0738 16.4218H93.0026C92.1246 16.4218 91.1081 17.0303 89.9531 18.2473C89.6209 18.6345 89.3124 19.0336 89.0276 19.4445C88.5609 20.1399 88.1574 20.8591 87.8173 21.6019C87.5088 22.3052 87.2754 22.9453 87.1172 23.5222C86.8799 24.3757 86.7612 25.0474 86.7612 25.5374Z" fill="#232E45"/>
<path d="M102.072 13.9562C102.546 13.9562 103.084 14.2407 103.686 14.8097C104.073 15.2364 104.267 15.6236 104.267 15.9713C104.267 16.0741 104.093 16.4455 103.745 17.0856C101.633 21.2265 100.418 23.625 100.102 24.2809C99.9517 24.6128 99.8252 24.9131 99.7223 25.1818C100.189 24.8499 100.905 24.2177 101.87 23.2852C103.318 21.7916 104.397 20.5627 105.109 19.5986C106.051 18.3816 106.64 17.5479 106.877 17.0975C107.732 15.4142 108.238 14.4264 108.396 14.134C108.507 14.0155 108.661 13.9562 108.859 13.9562C109.215 13.9562 109.63 14.134 110.105 14.4896C110.382 14.7188 110.599 14.944 110.758 15.1653C110.947 15.4735 111.042 15.7145 111.042 15.8884V15.9476C111.042 16.082 110.932 16.3388 110.71 16.7181C110.623 16.8999 109.148 19.7962 106.284 25.407H106.308C108.335 24.2206 110.83 22.3698 112.458 20.7247C112.531 20.7175 112.793 21.5986 112.134 22.1401C111.472 23.0611 112.134 23.6953 105.857 27.4458L104.979 27.9793C103.492 30.8874 102.673 32.4798 102.523 32.7564C102.309 33.112 102.028 33.4992 101.68 33.918C100.438 35.2536 99.046 35.9213 97.5034 35.9213C96.301 35.9213 95.332 35.542 94.5963 34.7834C94.1692 34.3171 93.9556 33.8548 93.9556 33.3965V33.2542C93.9556 32.3454 94.7901 31.5038 96.4593 30.7294C96.8864 30.5081 97.9464 29.9905 99.6393 29.1765C100.327 28.8209 100.822 28.5601 101.122 28.3942L103.709 23.297H103.697C102.582 24.4429 101.914 25.0948 101.692 25.2529C100.917 25.9325 100.292 26.4067 99.8173 26.6753C99.4929 26.8887 99.1449 26.9954 98.7731 26.9954C98.1165 26.9954 97.5588 26.7228 97.1 26.1775C96.8231 25.8061 96.6847 25.3635 96.6847 24.8499C96.6847 24.0596 97.2147 22.6688 98.2747 20.6773C100.284 16.726 101.395 14.5489 101.609 14.1459C101.72 14.0194 101.874 13.9562 102.072 13.9562ZM95.4269 33.3253C95.5456 33.4123 95.7038 33.4557 95.9016 33.4557H95.9728C96.566 33.4557 97.2582 33.2187 98.0493 32.7445C98.3024 32.5944 98.6465 32.298 99.0816 31.8555C99.5958 31.2707 99.9438 30.761 100.126 30.3263C98.7889 30.9585 97.7922 31.4485 97.1356 31.7962C96.2417 32.302 95.6721 32.8117 95.4269 33.3253Z" fill="#232E45"/>
<path d="M126.733 7.16395C127.721 7.16395 128.591 7.41288 129.343 7.91074C130.015 8.3928 130.45 8.87486 130.648 9.35691C130.712 9.53867 130.743 9.72043 130.743 9.90219V9.9496C130.743 10.8584 130.007 12.0082 128.536 13.3991C127.737 14.0945 127.049 14.6319 126.471 15.0112C126.274 15.1534 126.147 15.2246 126.092 15.2246H126.08C125.795 15.2246 125.526 15.0507 125.273 14.703C125.226 14.6319 125.194 14.5489 125.178 14.4541C125.178 14.3434 125.253 14.2525 125.404 14.1814C127.682 12.6246 129.058 11.1824 129.533 9.85477C129.28 9.71253 128.896 9.6414 128.382 9.6414H128.263C127.314 9.6414 126.127 9.95355 124.703 10.5779C123.897 10.9809 123.034 11.5262 122.117 12.2137C121.816 12.4271 121.377 12.8261 120.8 13.4109C120.127 14.217 119.779 14.8294 119.755 15.2483C119.748 15.2957 119.744 15.3589 119.744 15.4379C120.076 15.3905 120.341 15.3668 120.539 15.3668C121.796 15.3668 122.761 15.837 123.434 16.7774C123.616 17.054 123.707 17.2832 123.707 17.4649V17.536C123.707 17.7494 123.6 17.8996 123.386 17.9865C123.299 18.0102 123.22 18.0221 123.149 18.0221C122.983 18.0221 122.754 17.9667 122.461 17.8561C122.374 17.8482 122.295 17.8442 122.224 17.8442H122.212C121.009 17.8442 119.522 18.5397 117.75 19.9305C117.418 20.1834 116.852 20.7247 116.053 21.5545C115.033 22.7399 114.325 23.7 113.929 24.435C113.652 24.9644 113.431 25.4742 113.265 25.9641C113.035 26.7307 112.921 27.3589 112.921 27.8489V27.9556C112.921 27.9635 112.917 27.9674 112.909 27.9674L112.921 27.9911V28.0978C112.921 28.6905 113.071 29.137 113.372 29.4373C113.625 29.5005 113.886 29.5321 114.155 29.5321H114.309C115.591 29.5321 117.355 28.7142 119.601 27.0784C126.846 21.8034 129.264 18.9315 131.613 16.3744C132.523 15.2519 132.346 17.6233 131.352 18.6029C130.594 19.3497 124.917 25.1699 120.242 28.4534C118.219 29.8745 116.097 31.1205 114.499 31.1205C113.154 31.1205 111.975 30.4765 110.963 29.1884C110.425 28.3902 110.156 27.517 110.156 26.5687C110.164 26.5291 110.168 26.4896 110.168 26.4501V26.3909C110.168 25.3003 110.52 24.0319 111.224 22.5858C111.477 22.1037 111.888 21.4834 112.458 20.7247C112.806 20.2506 113.36 19.6105 114.119 18.8044C115.013 17.9509 115.717 17.3622 116.231 17.0382C116.809 16.6431 117.287 16.3546 117.667 16.1729C117.96 16.0306 118.106 15.9555 118.106 15.9476C118.074 15.9476 117.94 15.8212 117.703 15.5683C117.236 15.0151 117.003 14.458 117.003 13.8969V13.8732C117.003 12.8775 117.699 11.7435 119.091 10.4712C119.835 9.83897 120.459 9.37667 120.966 9.08427C121.773 8.57851 122.461 8.21104 123.03 7.98187C124.423 7.43659 125.657 7.16395 126.733 7.16395Z" fill="#232E45"/>
<path d="M133.666 13.9562C134.125 13.9562 134.635 14.213 135.196 14.7267C135.639 15.1771 135.861 15.5723 135.861 15.9121V15.9713C135.861 16.1294 135.75 16.3072 135.529 16.5048C134.548 17.5795 134.057 18.4844 134.057 19.2193V19.2904C134.057 19.3141 134.053 19.3339 134.046 19.3497C134.046 19.8713 134.291 20.6022 134.781 21.5426C134.979 22.0721 135.078 22.5542 135.078 22.9888V23.1666C135.078 23.7514 134.916 24.3797 134.591 25.0514C133.737 26.7899 132.515 27.7224 130.925 27.8489C129.659 27.8489 128.595 27.3747 127.733 26.4264C127.353 25.9523 127.163 25.4426 127.163 24.8973C127.163 24.1465 127.515 23.4116 128.219 22.6925C129.048 21.9673 130.179 21.5565 131.284 21.7878C133.726 22.2992 136.193 25.079 136.193 25.2529C136.154 25.3793 135.612 26.4501 135.612 26.4501C135.612 26.4501 133.373 22.8288 130.972 22.7955C130.303 22.7862 129.916 23.0402 129.394 23.4274C128.983 23.8146 128.738 24.1031 128.658 24.2927C128.453 24.6483 128.35 24.9407 128.35 25.1699C128.643 25.2964 128.9 25.3596 129.121 25.3596C129.912 25.3596 130.731 24.8143 131.577 23.7237C132.084 22.9572 132.337 22.2657 132.337 21.6493C132.337 21.2305 132.226 20.8393 132.005 20.4758C131.625 19.646 131.411 19.0217 131.364 18.6029H131.352C128.224 21.9743 129.607 18.4061 131.613 16.3744C131.74 16.0425 132.016 15.5999 132.444 15.0467C132.705 14.7148 132.997 14.3829 133.322 14.051C133.44 13.9878 133.555 13.9562 133.666 13.9562ZM140.999 14.9045C141.434 14.9045 141.92 15.1495 142.458 15.6394C142.87 16.0662 143.075 16.4415 143.075 16.7656V16.8248C143.06 16.9355 143.04 17.0026 143.016 17.0263C142.083 18.0537 141.616 18.9111 141.616 19.5986V19.6697C141.616 19.6934 141.612 19.7132 141.604 19.729C141.604 20.219 141.833 20.9104 142.292 21.8034C142.49 22.3092 142.589 22.7675 142.589 23.1785V23.3563C142.589 23.9095 142.431 24.5061 142.114 25.1462H142.126C144.218 23.7834 145.025 21.8034 146.444 19.072C148.315 18.8175 146.006 21.6995 146.006 23.0007C146.006 23.0639 145.868 23.2338 145.591 23.5104C144.468 24.6879 143.649 25.4979 143.135 25.9404C142.352 26.5884 141.786 26.9756 141.438 27.1021C141.177 27.2443 140.765 27.3945 140.204 27.5525C139.516 27.7106 138.997 27.7896 138.649 27.7896C137.447 27.7896 136.434 27.3431 135.612 26.4501C135.256 25.9918 135.078 25.5058 135.078 24.9921C135.078 23.54 136.423 21.7305 137.909 21.7305C139.437 21.7305 140.335 22.8092 140.335 22.8092L140.234 23.2241C140.234 23.2241 139.509 22.6972 138.507 22.6972C137.431 22.6972 136.347 23.5104 136.193 25.2529C136.47 25.3714 136.715 25.4307 136.929 25.4307C137.68 25.4307 138.46 24.9131 139.266 23.8778C139.741 23.1508 139.978 22.4949 139.978 21.9101C139.978 21.515 139.876 21.1436 139.67 20.7958C139.306 20.0056 139.104 19.4129 139.065 19.0178H139.053C138.91 18.3935 138.994 17.6901 139.302 16.9078C139.421 16.5917 139.682 16.1689 140.085 15.6394C140.33 15.3312 140.524 15.1179 140.667 14.9993C140.785 14.9361 140.896 14.9045 140.999 14.9045Z" fill="#232E45"/>
<path d="M152.5 13.9562C153.339 13.9562 154.063 14.1735 154.672 14.6082C155.194 15.0191 155.51 15.434 155.621 15.8528C155.748 15.6394 156.021 15.1139 156.44 14.2762C156.535 14.0629 156.713 13.9562 156.974 13.9562C157.48 13.9562 158.046 14.2683 158.671 14.8926C159.003 15.3115 159.169 15.6513 159.169 15.9121C159.169 16.0622 159.058 16.3309 158.837 16.7181C158.639 17.1054 157.385 19.5631 155.075 24.0912C154.838 24.5812 154.632 25.0672 154.458 25.5492H154.482C156.852 24.0035 158.19 22.9532 159.783 19.6869L160.822 20.7485C161.036 20.7485 158.928 22.2855 159.181 22.5858C159.276 22.7122 159.323 22.8347 159.323 22.9532C159.323 23.0086 159.177 23.1785 158.884 23.463C157.967 24.3955 157.318 25.0079 156.938 25.3003C155.372 26.6437 154.13 27.3155 153.212 27.3155C152.437 27.3155 151.868 26.8492 151.504 25.9167C151.44 25.7191 151.409 25.5018 151.409 25.2647V25.2055H151.397C150.74 25.7428 150.183 26.1538 149.724 26.4383C148.877 26.9994 148.177 27.2799 147.624 27.2799C146.943 27.2799 146.338 27.0073 145.808 26.462C145.294 25.8693 145.037 25.1185 145.037 24.2098V24.1386C145.037 24.107 145.033 24.0794 145.025 24.0557C145.033 24.024 145.037 23.9924 145.037 23.9608C145.037 22.7438 145.472 21.1831 146.342 19.2786C146.753 18.4251 147.307 17.536 148.003 16.6115C149.403 14.8413 150.903 13.9562 152.5 13.9562ZM147.766 25.5374C147.766 25.6954 147.786 25.8495 147.825 25.9997C148.387 25.8337 149.313 25.2173 150.602 24.1505C151.132 23.7079 151.654 23.2338 152.168 22.728C152.445 22.0958 153.212 20.5706 154.47 18.1524C154.47 18.1445 154.731 17.6269 155.253 16.5996C155.245 16.5996 155.241 16.5956 155.241 16.5877C155.241 16.5877 155.19 16.5917 155.087 16.5996C154.976 16.5996 154.739 16.5482 154.375 16.4455C154.288 16.4297 154.189 16.4218 154.079 16.4218H154.007C153.129 16.4218 152.113 17.0303 150.958 18.2473C150.626 18.6345 150.317 19.0336 150.032 19.4445C149.566 20.1399 149.162 20.8591 148.822 21.6019C148.514 22.3052 148.28 22.9453 148.122 23.5222C147.885 24.3757 147.766 25.0474 147.766 25.5374Z" fill="#232E45"/>
<path d="M163.077 13.9562C163.551 13.9562 164.089 14.2407 164.69 14.8097C165.078 15.2364 165.272 15.6236 165.272 15.9713C165.272 16.0741 165.098 16.4455 164.75 17.0856C162.638 21.2265 161.423 23.625 161.107 24.2809C160.957 24.6128 160.83 24.9131 160.727 25.1818C161.194 24.8499 161.91 24.2177 162.875 23.2852C164.322 21.7916 165.402 20.5627 166.114 19.5986C167.056 18.3816 167.645 17.5479 167.882 17.0975C168.737 15.4142 169.243 14.4264 169.401 14.134C169.512 14.0155 169.666 13.9562 169.864 13.9562C170.22 13.9562 170.635 14.134 171.11 14.4896C171.387 14.7188 171.604 14.944 171.762 15.1653C171.952 15.4735 172.047 15.7145 172.047 15.8884V15.9476C172.047 16.082 171.936 16.3388 171.715 16.7181C171.628 16.8999 170.152 19.7962 167.289 25.407H167.313C167.866 25.083 168.697 24.4389 169.804 23.4748C170.018 23.2931 170.469 22.8545 171.157 22.159L171.276 22.1472C171.537 22.1472 171.806 22.325 172.083 22.6806C172.13 22.7912 172.154 22.8782 172.154 22.9414V22.9651C172.154 23.0204 172.039 23.1587 171.81 23.38C170.987 24.2098 170.263 24.8815 169.638 25.3951C168.562 26.2723 167.637 26.9559 166.862 27.4458L165.984 27.9793C164.496 30.8874 163.678 32.4798 163.527 32.7564C163.314 33.112 163.033 33.4992 162.685 33.918C161.443 35.2536 160.051 35.9213 158.508 35.9213C157.306 35.9213 156.337 35.542 155.601 34.7834C155.174 34.3171 154.96 33.8548 154.96 33.3965V33.2542C154.96 32.3454 155.795 31.5038 157.464 30.7294C157.891 30.5081 158.951 29.9905 160.644 29.1765C161.332 28.8209 161.827 28.5601 162.127 28.3942L164.714 23.297H164.702C163.587 24.4429 162.918 25.0948 162.697 25.2529C161.922 25.9325 161.297 26.4067 160.822 26.6753C160.498 26.8887 160.15 26.9954 159.778 26.9954C159.121 26.9954 158.564 26.7228 158.105 26.1775C157.828 25.8061 157.689 25.3635 157.689 24.8499C157.689 24.0596 158.219 22.6688 159.279 20.6773C161.289 16.726 162.4 14.5489 162.614 14.1459C162.725 14.0194 162.879 13.9562 163.077 13.9562ZM156.432 33.3253C156.55 33.4123 156.709 33.4557 156.906 33.4557H156.978C157.571 33.4557 158.263 33.2187 159.054 32.7445C159.307 32.5944 159.651 32.298 160.086 31.8555C160.601 31.2707 160.949 30.761 161.131 30.3263C159.794 30.9585 158.797 31.4485 158.14 31.7962C157.247 32.302 156.677 32.8117 156.432 33.3253Z" fill="#232E45"/>
<path d="M186.637 13.6836C187.286 13.6836 187.931 13.9285 188.572 14.4185C189.173 14.9401 189.473 15.4419 189.473 15.9239C189.473 16.5561 188.955 17.4689 187.919 18.6622C187.618 19.002 187.385 19.247 187.219 19.3971L187.148 19.409H187.076C186.926 19.409 186.709 19.2707 186.424 18.9941C186.305 18.836 186.238 18.7017 186.222 18.591V18.5199C186.863 17.8482 187.345 17.295 187.67 16.8604C187.868 16.5601 188.01 16.327 188.097 16.161C187.765 16.2558 187.436 16.3941 187.112 16.5759C186.709 16.7972 186.25 17.1646 185.736 17.6783C185.182 18.2473 184.755 18.757 184.454 19.2074C183.007 21.3095 182.283 23.1745 182.283 24.8024V25.0869C182.283 25.3951 182.338 25.731 182.449 26.0945C183.05 26.0392 183.829 25.6796 184.786 25.0158C185.308 24.676 186.088 24.0201 187.124 23.0481C188.35 21.8984 188.908 20.6352 188.924 20.6352C188.21 21.9124 188.1 21.6911 188.868 22.5976C188.955 22.7162 188.999 22.8347 188.999 22.9532C188.999 23.0086 188.872 23.1587 188.619 23.4037C187.63 24.3994 186.958 25.0198 186.602 25.2647C185.937 25.81 185.344 26.221 184.822 26.4975C183.786 27.0349 182.991 27.3036 182.437 27.3036H182.295C181.369 27.3036 180.59 26.707 179.957 25.5137C179.672 24.8815 179.53 24.1979 179.53 23.463C179.53 22.2144 179.854 20.8749 180.503 19.4445C180.851 18.7333 181.31 17.9628 181.879 17.133C182.18 16.6984 182.603 16.1847 183.149 15.592C184.438 14.3197 185.601 13.6836 186.637 13.6836Z" fill="#232E45"/>
<path d="M195.635 13.9562C196.616 13.9562 197.467 14.3355 198.187 15.0942C198.606 15.5446 198.906 16.1768 199.088 16.9908C199.167 17.378 199.207 17.7376 199.207 18.0695V18.2591C199.207 19.6184 198.677 21.187 197.617 22.9651C197.285 23.5104 196.81 24.1307 196.193 24.8262C195.552 25.4742 195.078 25.8969 194.769 26.0945C193.575 26.9243 192.515 27.3392 191.589 27.3392H191.376C190.363 27.3392 189.501 26.8373 188.789 25.8337C188.267 25.0751 188.006 24.1386 188.006 23.0244C188.006 21.1989 188.627 19.3023 189.869 17.3345C190.122 16.9473 190.442 16.5561 190.83 16.161C190.933 16.1057 191.031 16.078 191.126 16.078H191.233C191.281 16.078 191.364 16.0859 191.482 16.1017C191.965 15.6039 192.341 15.272 192.61 15.106C193.678 14.3395 194.686 13.9562 195.635 13.9562ZM192.811 20.9855C192.811 21.3016 192.877 21.792 193.076 22.1709C193.778 23.5104 197.75 23.8704 201.454 18.9189C201.947 18.2591 201.339 20.9306 200.53 21.6533C198.454 23.5073 196.597 24.8262 193.327 23.9095C192.251 23.608 191.482 22.9532 191.138 22.1709C190.885 23.0165 190.759 23.7514 190.759 24.3757V24.5891C190.759 25.1818 190.865 25.6441 191.079 25.976C192.036 25.976 193.152 25.403 194.425 24.2572C195.09 23.6013 195.54 23.0876 195.778 22.7162C196.134 22.2341 196.407 21.8153 196.597 21.4597C197.411 19.9424 197.819 18.6266 197.819 17.5123V17.4057C197.811 16.8446 197.771 16.564 197.7 16.564C197.526 16.4771 197.38 16.4336 197.261 16.4336C196.533 16.4336 195.643 16.8446 194.591 17.6664C193.405 18.7333 192.811 19.8396 192.811 20.9855Z" fill="#232E45"/>
<path d="M210.958 20.6062C209.66 23.1271 208.909 24.6523 208.703 25.1818C208.45 25.8377 208.32 26.2763 208.312 26.4975C208.549 26.8374 208.668 27.1297 208.668 27.3747V27.4577C208.668 27.6395 208.553 27.7738 208.324 27.8607C208.3 27.8765 208.229 27.8884 208.11 27.8963C207.651 27.8963 207.062 27.6078 206.342 27.031C205.804 26.4936 205.535 25.9048 205.535 25.2647C205.535 24.3639 206.132 22.811 207.327 20.6062C208.45 18.4093 209.154 17.0145 209.439 16.4218L209.51 16.1373C208.854 16.3507 207.924 16.9315 206.722 17.8798C206.31 18.2196 205.761 18.7451 205.072 19.4564C204.669 19.8752 204.463 20.1162 204.455 20.1795C202.114 24.7708 200.84 27.2641 200.635 27.6592C200.524 27.7857 200.37 27.8489 200.172 27.8489C199.689 27.8489 199.143 27.5565 198.534 26.9717C198.163 26.545 197.977 26.1775 197.977 25.8693V25.8456C197.977 25.7428 198.103 25.4584 198.356 24.9921C201.837 18.1643 203.68 14.5568 203.886 14.1696C203.989 14.0273 204.143 13.9562 204.349 13.9562C204.712 13.9562 205.136 14.134 205.618 14.4896C205.895 14.7188 206.109 14.944 206.259 15.1653C206.449 15.4735 206.544 15.7145 206.544 15.8884V15.9476C206.544 16.0741 206.465 16.2716 206.306 16.5403H206.318C207.821 15.4419 208.988 14.8926 209.819 14.8926C210.689 14.8926 211.405 15.3154 211.966 16.161C212.204 16.6035 212.322 16.9473 212.322 17.1923C212.314 17.3029 212.295 17.4333 212.263 17.5835C212.722 17.2041 213.169 16.8841 213.604 16.6233C214.608 16.0227 215.411 15.7224 216.013 15.7224C216.819 15.7224 217.496 16.0899 218.042 16.8248C218.366 17.3227 218.528 17.7652 218.528 18.1524C218.528 18.6187 218.33 19.2035 217.935 19.9068C216.519 22.7043 215.712 24.3283 215.514 24.7787C215.348 25.1502 215.237 25.4505 215.182 25.6796C215.767 25.3003 216.578 24.6444 217.614 23.7119C218.042 23.2931 218.5 22.8268 218.991 22.3131L219.074 22.2894H219.133C219.402 22.2894 219.663 22.4672 219.916 22.8229C219.972 22.9256 220 23.0046 220 23.0599V23.1073C220 23.1706 219.877 23.3207 219.632 23.5578C218.951 24.2611 218.374 24.8143 217.899 25.2173C216.293 26.6082 215.138 27.3036 214.434 27.3036H214.399C213.813 27.3036 213.252 26.9559 212.714 26.2605C212.429 25.8495 212.287 25.4346 212.287 25.0158V24.8617C212.287 24.1268 212.789 22.807 213.794 20.9025C214.727 19.0691 215.34 17.8482 215.633 17.2397L215.692 16.9789C215.684 16.9789 215.68 16.975 215.68 16.9671C215.206 17.133 214.545 17.5123 213.699 18.105C213.24 18.429 212.651 18.9308 211.931 19.6105C211.519 20.0135 211.195 20.3454 210.958 20.6062Z" fill="#232E45"/>
<defs>
<linearGradient id="paint0_linear" x1="187.92" y1="0.780518" x2="187.92" y2="47.2197" gradientUnits="userSpaceOnUse">
<stop stop-color="#FFAA00"/>
<stop offset="1" stop-color="#FFC95E"/>
</linearGradient>
</defs>
</svg>
